<?xml version="1.0" encoding="UTF-8"?><svg xmlns="http://www.w3.org/2000/svg" width="100%" height="100%"><defs><font id="web" horiz-adv-x="1047"><!--



NOTICE: This font software is the valuable property 
of Webtype LLC, The Font Bureau, Ascender Corp and/or 
its suppliers and its use by you is covered under the 
terms of the Web Font license agreement between you 
and Webtype LLC. You may ONLY use this font software 
with the licensed web site. Except as specifically 
permitted by the license, you may not copy this font 
software. If you have any questions, please contact 
Webtype.com. 

For more information, please visit http://www.webtype.com/store/license/?id=23

Licensed to: http://www.boston.com

Serial number: SH-167
--><font-face font-family="" units-per-em="2048" panose-1="2 0 5 3 8 0 0 2 0 4" ascent="1940" descent="-489" alphabetic="0"/><missing-glyph horiz-adv-x="430"/><glyph unicode=" " horiz-adv-x="430"/><glyph unicode="!" horiz-adv-x="668" d="M311 430Q304 527 295 622T275 806T254 974T235 1117T222 1226T217 1294Q217 1322 226 1347T252 1392T290 1423T338 1434Q364 1434 386 1423T425 1393T451 1348T461 1294Q461 1273 456 1228T443 1120T424 977T402 808T381 623T362 430H311ZM338 -25Q309 -25 285 -15T243 14T215 57T205 111Q205 139 215 164T243 207T285 237T338 248Q366 248 391 237T434 208T462 164T473 111Q473 82 463 58T434 15T391 -14T338 -25Z"/><glyph unicode="&quot;" horiz-adv-x="711" d="M494 967Q477 1078 462 1150T434 1270T415 1346T408 1397Q408 1443 436 1476T520 1509Q576 1509 604 1476T633 1397Q633 1377 626 1349T607 1272T579 1151T543 967H494ZM164 967Q147 1078 132 1150T104 1270T85 1346T78 1397Q78 1443 106 1476T190 1509Q246 1509 274 1476T303 1397Q303 1377 296 1349T277 1272T249 1151T213 967H164Z"/><glyph unicode="#" horiz-adv-x="1188" d="M426 -14V317L199 262V449L426 504V711L199 655V842L426 897V1284H475V911L715 971V1284H764V985L993 1040V854L764 799V592L993 647V461L764 406V-14H715V391L475 332V-14H426ZM475 518L715 578V784L475 725V518Z"/><glyph unicode="$" horiz-adv-x="1073" d="M434 -258V-8Q363 2 300 29T191 96T117 190T90 305Q90 392 125 436T217 481Q264 481 289 448T315 367Q315 338 309 319T293 285T269 257T240 227Q245 153 296 107T434 43V647Q361 667 303 701T204 781T141 886T119 1014Q119 1073 138 1134T197 1249T296 1345T434 1407V1552H477V1415Q497 1418 516 1419T557 1421Q571 1421 586 1421T616 1417V1552H659V1413Q717 1403 769 1381T862 1326T926 1247T950 1145Q950 1113 943 1084T923 1033T889 998T844 985Q825 985 807 991T776 1009T754 1041T745 1087Q745 1114 751 1133T768 1170T790 1206T815 1251Q804 1286 765 1316T659 1360V799Q732 779 792 746T895 664T961 553T985 412Q985 334 961 267T894 146T791 57T659 2V-258H616V-6Q595 -11 573 -12T528 -14Q516 -14 503 -14T477 -12V-258H434ZM434 860V1348Q395 1333 364 1309T311 1255T278 1188T266 1112Q266 1071 273 1035T300 966T351 908T434 860ZM616 809V1366Q602 1368 587 1369T555 1370Q533 1370 515 1369T477 1362V848Q512 835 546 827T616 809ZM524 37Q549 37 572 38T616 45V604Q578 617 546 624T477 639V39Q488 37 500 37T524 37ZM659 55Q744 83 793 150T842 326Q842 367 832 406T801 480T744 543T659 592V55Z"/><glyph unicode="%" horiz-adv-x="1571" d="M410 580Q338 580 282 612T187 700T129 830T109 987Q109 1092 135 1175T205 1315T305 1402T420 1432Q491 1432 546 1400T640 1313T699 1183T719 1024Q719 919 693 837T624 697T526 610T410 580ZM432 -51L373 -20L1139 1438L1202 1407L432 -51ZM1159 -33Q1087 -33 1031 -1T937 88T878 218T858 375Q858 480 884 562T954 702T1054 789T1169 819Q1241 819 1296 787T1390 700T1448 571T1468 412Q1468 307 1442 225T1374 85T1275 -2T1159 -33ZM412 623Q446 623 475 649T524 724T555 845T567 1008Q567 1089 559 1158T534 1280T487 1361T416 1391Q381 1391 353 1365T304 1289T272 1167T260 1004Q260 921 268 851T294 731T341 652T412 623ZM1161 10Q1195 10 1224 36T1273 112T1305 233T1317 395Q1317 476 1309 545T1283 667T1236 748T1165 778Q1130 778 1102 752T1053 676T1022 554T1010 391Q1010 308 1018 238T1044 118T1091 39T1161 10Z"/><glyph unicode="&amp;" horiz-adv-x="1366" d="M416 -33Q351 -33 287 -14T171 46T87 151T55 305Q55 380 74 441T132 555T229 659T365 764Q329 825 304 872T262 960T237 1037T229 1112Q229 1184 257 1242T331 1342T436 1405T559 1427Q620 1427 665 1405T741 1345T787 1257T803 1153Q803 1056 744 970T571 809Q613 740 649 685T720 578T791 477T870 367Q899 414 927 464T977 562T1012 655T1026 735Q1026 753 1014 768T979 797T926 820T860 840V883H1386V840Q1347 835 1312 829T1245 813T1187 785T1139 739Q1118 714 1095 668T1043 564T979 444T901 324Q919 298 945 266T1000 204T1054 149T1098 113Q1122 97 1152 85T1214 65T1278 51T1337 45V0H891L770 164Q737 126 700 91T620 28T526 -16T416 -33ZM545 856Q620 910 660 986T700 1159Q700 1259 661 1312T561 1366Q529 1366 503 1349T459 1305T432 1242T422 1171Q422 1105 452 1031T545 856ZM504 100Q573 100 636 125T739 205Q700 262 653 330T559 467T470 600T397 715Q363 691 338 657T295 580T269 490T260 391Q260 328 276 275T324 183T401 122T504 100Z"/><glyph unicode="'" horiz-adv-x="381" d="M164 967Q147 1078 132 1150T104 1270T85 1346T78 1397Q78 1443 106 1476T190 1509Q246 1509 274 1476T303 1397Q303 1377 296 1349T277 1272T249 1151T213 967H164V967Z"/><glyph unicode="(" horiz-adv-x="668" d="M543 -328Q490 -283 435 -231T327 -116T229 21T149 183T94 376T74 604Q74 782 115 922T222 1173T372 1372T541 1532L614 1477Q536 1410 463 1329T332 1143T240 906T205 604Q205 431 241 295T336 52T467 -133T614 -272L543 -328Z"/><glyph unicode=")" horiz-adv-x="668" d="M125 -328L55 -272Q128 -213 201 -134T332 52T426 294T463 604Q463 773 429 905T337 1142T207 1328T55 1477L127 1532Q183 1484 239 1430T348 1312T445 1174T523 1013T575 825T594 604Q594 419 551 276T440 21T289 -175T125 -328Z"/><glyph unicode="*" horiz-adv-x="764" d="M379 809Q351 809 338 824T324 864Q324 879 329 898T341 946T355 1010T369 1094Q318 1060 283 1030T223 977Q200 957 185 946T158 934Q148 934 138 939T120 953T107 973T102 997Q102 1022 117 1031T164 1051Q195 1059 243 1073T362 1118Q290 1150 240 1164T158 1188Q129 1197 116 1207T102 1241Q102 1264 118 1283T156 1303Q165 1303 175 1297T199 1280Q225 1258 264 1222T367 1145Q361 1187 354 1222T340 1285T329 1335T324 1372Q324 1427 379 1427Q410 1427 423 1411T436 1372Q436 1359 431 1339T418 1290T403 1225T391 1145Q450 1187 486 1219T549 1274Q564 1286 576 1294T600 1303Q622 1303 637 1285T653 1241Q653 1218 640 1209T598 1190Q567 1179 519 1165T397 1118Q463 1089 510 1076T590 1053Q622 1042 637 1031T653 997Q653 966 635 950T596 934Q585 934 571 945T537 977Q512 999 478 1028T393 1092Q397 1047 404 1011T418 946T430 897T436 864Q436 841 422 825T379 809Z"/><glyph unicode="+" horiz-adv-x="1188" d="M545 39V485H100V580H545V1026H643V580H1087V485H643V39H545Z"/><glyph unicode="," horiz-adv-x="467" d="M98 -342L76 -295Q119 -270 154 -240T217 -172T261 -92T283 4H227Q187 4 161 15T118 45T95 86T88 133Q88 154 96 176T120 215T159 243T213 254Q258 254 290 238T343 194T373 125T383 37Q383 -34 352 -94T277 -203T184 -287T98 -342Z"/><glyph unicode="-" horiz-adv-x="655" d="M66 436V590H590V436H66Z"/><glyph unicode="." horiz-adv-x="467" d="M233 -18Q205 -18 181 -8T138 21T109 63T98 117Q98 145 108 170T137 214T180 243T233 254Q261 254 286 244T329 214T358 170T369 117Q369 88 359 64T330 21T286 -7T233 -18Z"/><glyph unicode="/" horiz-adv-x="733" d="M78 -434L-6 -408L567 1540L655 1513L78 -434Z"/><glyph unicode="0" horiz-adv-x="1100" d="M541 -33Q425 -33 337 24T190 177T102 400T72 668Q72 845 112 986T219 1227T375 1379T559 1432Q674 1432 761 1376T908 1224T998 1001T1028 731Q1028 554 988 413T881 172T726 20T541 -33ZM547 20Q604 20 652 68T735 205T791 420T811 702Q811 840 797 963T752 1178T672 1324T553 1378Q495 1378 447 1330T363 1193T309 978T289 696Q289 552 303 429T348 215T428 72T547 20Z"/><glyph unicode="1" horiz-adv-x="780" d="M123 0V45Q135 46 157 47T202 52T245 58T276 66Q301 75 317 101T334 162V1243Q318 1238 297 1236T250 1233Q227 1233 201 1243T148 1271T94 1310T41 1356L57 1391Q99 1371 148 1357T254 1343Q294 1343 335 1351T414 1373T481 1401T532 1430H557Q552 1397 548 1358T539 1278T533 1197T530 1122V172Q530 140 545 113T586 74Q596 68 615 63T656 55T697 49T731 45V0H123Z"/><glyph unicode="2" horiz-adv-x="944" d="M18 0L31 92Q189 224 297 335T477 543Q532 619 567 688T622 822T649 950T657 1077Q657 1144 642 1199T600 1293T534 1354T449 1376Q395 1376 352 1358T278 1311T232 1243T215 1165Q216 1154 228 1143T253 1118T278 1085T289 1040Q289 1024 285 1003T268 964T232 933T172 920Q140 920 118 932T80 964T58 1008T51 1057Q51 1119 78 1185T159 1306T289 1396T465 1432Q559 1432 633 1403T759 1323T837 1200T864 1044Q864 925 830 821T723 619T533 422T252 217L199 166H692Q729 166 760 186T816 237T860 306T893 381L934 367L817 0H18Z"/><glyph unicode="3" horiz-adv-x="987" d="M391 -33Q329 -33 263 -14T143 43T55 139T20 274Q20 318 31 351T62 407T107 441T162 453Q207 453 236 425T266 344Q266 308 253 291T224 260T195 232T182 186Q182 154 195 125T233 73T298 37T389 23Q449 23 507 57T612 151T686 292T715 469Q715 533 703 579T669 655T617 699T549 713Q523 713 499 703T452 675T406 637T360 594L324 651Q404 708 470 758T583 865T656 989T682 1149Q682 1252 638 1313T502 1374Q451 1374 413 1359T349 1322T309 1280T293 1247Q294 1236 300 1225T315 1200T329 1168T336 1122Q336 1106 333 1086T318 1049T284 1020T223 1008Q191 1008 170 1020T135 1050T117 1091T111 1135Q111 1182 140 1234T222 1330T348 1403T510 1432Q585 1432 642 1417T742 1377T813 1321T859 1256T883 1191T891 1135Q891 1091 877 1042T829 945T736 859T588 797L557 764Q566 764 584 765T612 766Q659 766 714 753T816 704T894 607T926 449Q926 338 884 249T769 97T599 1T391 -33Z"/><glyph unicode="4" horiz-adv-x="1026" d="M332 0V45Q344 46 362 47T399 51T435 55T461 61Q489 72 501 97T514 156V481H14V535L623 1432H705V569H733Q787 569 824 573T883 596Q895 608 905 626T921 666T932 710T936 752H977V289H940Q939 311 936 335T926 383T909 427T885 459Q866 476 832 478T748 481H705V168Q705 134 717 108T754 70Q765 64 782 60T817 53T852 48T883 45V0H332ZM117 569H514V1157L117 569Z"/><glyph unicode="5" horiz-adv-x="928" d="M381 -33Q298 -33 231 -13T116 42T42 127T16 236Q16 281 29 309T62 354T103 377T141 383Q186 383 212 356T238 283Q238 257 232 240T217 208T202 177T195 135Q199 112 213 91T252 53T307 26T377 16Q433 16 474 40T546 105T595 199T626 313T642 434T647 553Q647 634 626 686T571 768T499 809T426 821Q391 821 351 809T273 771T207 710T166 627L115 639L268 1415H317Q327 1401 347 1386T399 1357T474 1334T571 1325Q622 1325 660 1333T731 1356T792 1394T852 1446L877 1421Q849 1353 807 1306T718 1229T620 1181T526 1156T447 1147T395 1145Q378 1145 359 1146T322 1148T291 1151T274 1153L193 776Q214 798 243 817T308 850T382 872T461 881Q535 881 606 854T734 771T824 632T858 438Q858 331 817 244T708 96T555 1T381 -33Z"/><glyph unicode="6" horiz-adv-x="1014" d="M489 -33Q402 -33 326 8T194 128T106 317T74 569Q74 689 98 800T166 1007T269 1182T399 1317T548 1403T707 1434Q780 1434 829 1412T909 1358T952 1290T965 1227Q965 1173 942 1144T862 1114Q825 1114 807 1129T779 1170T760 1228T737 1292Q729 1310 721 1323T700 1346T671 1361T629 1366Q569 1366 513 1317T411 1180T330 969T281 698H287Q346 785 421 826T602 868Q666 868 727 838T837 752T916 618T946 442Q946 393 936 339T905 233T848 132T762 47T644 -11T489 -33ZM496 14Q545 14 582 34T645 89T687 167T714 259T727 355T731 444Q731 609 676 701T504 793Q465 793 425 772T351 705T297 586T276 410Q276 315 295 241T346 117T416 40T496 14Z"/><glyph unicode="7" horiz-adv-x="899" d="M377 -35Q354 -35 335 -28T303 -4T282 40T274 109Q274 146 295 209T350 348T423 509T502 674Q540 754 575 820T645 948T719 1074T801 1214H293Q245 1214 210 1189T149 1126T109 1048T88 975L45 985L158 1511H199L213 1397H963V1378Q907 1291 864 1220T784 1078T714 932T647 758Q620 682 597 615T557 477T527 325T510 141Q508 106 499 75T473 19T432 -20T377 -35Z"/><glyph unicode="8" horiz-adv-x="1032" d="M489 -35Q397 -35 321 -7T189 70T103 182T72 319Q72 389 99 447T168 552T261 634T360 692Q310 717 266 749T188 823T135 918T115 1040Q115 1126 150 1198T243 1323T378 1405T535 1434Q621 1434 690 1409T809 1339T886 1231T913 1092Q913 1055 898 1010T853 919T777 833T670 764Q727 736 779 703T872 625T937 524T961 393Q961 293 920 214T812 80T661 -5T489 -35ZM637 780Q674 811 699 849T741 932T764 1024T772 1122Q772 1178 755 1225T706 1307T630 1361T532 1380Q478 1380 434 1360T358 1307T309 1228T291 1133Q291 1076 305 1031T349 948T428 879T545 819Q568 810 590 801T637 780ZM504 20Q556 20 605 39T694 96T756 188T780 311Q780 364 766 408T722 489T643 557T526 618Q494 632 461 646T393 676Q351 639 321 596T271 507T242 411T233 313Q233 256 250 204T301 110T385 45T504 20Z"/><glyph unicode="9" horiz-adv-x="1014" d="M279 -33Q212 -33 163 -13T81 38T32 106T16 176Q16 236 45 265T127 295Q163 295 181 276T210 228T226 168T242 113Q260 69 288 50T356 31Q409 31 455 57T541 129T612 238T668 377T708 538T731 711L721 713Q700 681 671 650T605 593T521 551T418 535Q353 535 290 562T178 643T98 776T68 958Q68 1041 95 1125T176 1278T311 1389T500 1432Q552 1432 604 1420T706 1379T797 1304T872 1191T922 1033T940 827Q940 715 920 608T861 405T765 229T635 91T472 0T279 -33ZM500 621Q535 621 576 638T653 698T713 808T737 979Q737 1080 717 1156T662 1282T586 1358T500 1384Q454 1384 420 1367T362 1320T322 1252T298 1170T286 1083T283 997Q283 807 333 714T500 621Z"/><glyph unicode=":" horiz-adv-x="635" d="M317 657Q289 657 265 667T222 696T193 739T182 793Q182 821 192 846T221 889T264 919T317 930Q345 930 370 919T413 890T442 846T453 793Q453 764 443 740T414 697T370 668T317 657ZM317 -16Q289 -16 265 -6T222 23T193 65T182 119Q182 147 192 172T221 216T264 245T317 256Q345 256 370 246T413 216T442 172T453 119Q453 90 443 66T414 23T370 -5T317 -16Z"/><glyph unicode=";" horiz-adv-x="623" d="M313 659Q255 659 221 698T186 803Q186 833 196 857T223 897T264 923T315 932Q345 932 368 921T406 891T430 848T438 799Q438 773 431 748T407 703T368 671T313 659ZM172 -342L150 -295Q193 -270 228 -240T291 -172T334 -92T356 4H301Q261 4 235 15T192 45T169 86T162 133Q162 154 170 176T194 215T233 243T287 254Q332 254 364 238T417 194T447 125T457 37Q457 -34 426 -94T351 -203T257 -287T172 -342Z"/><glyph unicode="&lt;" horiz-adv-x="1188" d="M1038 72L133 492V573L1038 993V887L262 532L1038 178V72Z"/><glyph unicode="=" horiz-adv-x="1188" d="M141 649V743H1047V649H141ZM141 322V416H1047V322H141Z"/><glyph unicode="&gt;" horiz-adv-x="1188" d="M150 72V178L926 532L150 887V993L1055 573V492L150 72Z"/><glyph unicode="?" horiz-adv-x="885" d="M324 369V754Q377 762 429 780T522 831T588 918T614 1049Q614 1137 598 1199T553 1300T485 1358T399 1376Q367 1376 334 1366T285 1333Q288 1319 291 1308T296 1283T299 1253T301 1212Q301 1185 290 1165T263 1132T227 1113T190 1106Q139 1106 114 1139T88 1223Q88 1263 110 1300T173 1367T272 1414T403 1432Q503 1432 578 1401T704 1314T779 1186T805 1030Q805 941 773 867T686 736T555 643T391 594L381 369H324ZM358 -25Q330 -25 306 -15T263 14T234 57T223 111Q223 139 233 164T262 207T305 237T358 248Q386 248 411 237T454 208T483 164T494 111Q494 82 484 58T455 15T411 -14T358 -25Z"/><glyph unicode="@" horiz-adv-x="1962" d="M997 -438Q893 -438 794 -416T606 -348T443 -236T315 -79T231 122T201 367Q201 491 230 611T315 839T450 1040T631 1198T852 1303T1110 1341Q1269 1341 1386 1286T1579 1139T1693 929T1731 684Q1731 602 1713 525T1663 380T1587 254T1489 156T1375 91T1251 68Q1213 68 1182 79T1126 111T1088 162T1071 233Q1023 156 974 113T864 70Q826 70 788 82T719 125T669 208T649 340Q649 385 662 442T702 559T765 674T851 774T956 845T1081 872Q1129 872 1165 843T1212 748L1249 860H1393L1219 322Q1211 297 1206 266T1200 215Q1200 164 1218 143T1270 121Q1343 121 1414 161T1543 277T1635 458T1671 696Q1671 821 1634 926T1524 1106T1347 1224T1106 1266Q1016 1266 927 1239T758 1158T609 1028T490 853T412 635T383 377Q383 204 430 69T561 -160T756 -303T997 -352Q1306 -352 1499 -200T1780 246L1819 233Q1777 75 1698 -49T1510 -260T1272 -392T997 -438ZM885 135Q919 135 947 150T998 191T1040 247T1075 311L1192 680Q1181 754 1157 790T1079 827Q1041 827 1007 802T942 735T889 639T848 527T822 412T813 307Q813 253 819 220T835 168T858 142T885 135Z"/><glyph unicode="A" horiz-adv-x="1268" d="M-59 0V45Q-46 46 -28 49T8 57T44 69T74 84Q108 106 134 148T180 244Q230 376 283 521T390 817T498 1121T604 1421H690Q737 1288 783 1159T871 908T953 676T1024 472T1083 304T1126 182Q1139 150 1153 127T1202 82Q1214 74 1230 68T1263 57T1297 49T1327 45V0H727V45Q751 46 782 52T842 67T891 91T911 125Q911 136 910 148T903 172L791 496H344Q318 424 301 371T270 270Q261 236 256 207T250 156Q250 128 273 108T330 75T400 54T461 45V0H-59ZM369 563H768L567 1128L369 563Z"/><glyph unicode="B" horiz-adv-x="1225" d="M66 0V45Q78 46 98 48T139 55T178 63T205 72Q239 86 250 111T262 170V1217Q262 1251 251 1277T205 1319Q190 1326 172 1332T136 1342T101 1350T72 1354V1399H721Q755 1399 795 1394T876 1375T953 1341T1019 1288T1065 1215T1083 1118Q1083 1031 1058 973T990 874T889 809T766 762V743Q799 739 840 729T924 700T1007 653T1080 584T1131 492T1151 371Q1151 305 1132 253T1079 159T1003 87T913 38T817 10T725 0H66ZM475 768H582Q655 768 705 792T786 859T832 957T846 1079Q846 1155 826 1206T773 1287T700 1330T618 1343Q607 1343 589 1343T551 1342T510 1341T475 1339V768ZM641 57Q720 57 771 89T853 172T895 286T907 412Q907 474 889 529T835 625T747 689T625 713Q613 713 593 713T550 712T508 711T475 709V182Q484 113 523 85T641 57Z"/><glyph unicode="C" horiz-adv-x="1200" d="M678 -31Q540 -31 426 19T229 163T102 387T57 682Q57 840 107 976T245 1211T455 1368T717 1425Q756 1425 798 1416T878 1392T950 1356T1004 1315L1059 1419H1133L1139 913H1090Q1064 1002 1028 1084T941 1228T821 1328T664 1366Q593 1366 527 1327T409 1207T326 999T295 698Q295 559 330 445T425 248T565 121T735 76Q820 76 883 99T993 163T1074 260T1135 383L1188 354Q1159 283 1116 214T1012 91T868 3T678 -31Z"/><glyph unicode="D" horiz-adv-x="1432" d="M66 0V45Q79 45 99 46T140 51T178 58T205 66Q239 80 250 106T262 166V1217Q262 1251 251 1278T205 1321Q189 1328 171 1334T134 1344T100 1350T72 1354V1399H684Q747 1399 822 1386T975 1340T1123 1255T1251 1123T1340 937T1374 690Q1374 571 1345 474T1265 299T1145 166T994 73T825 18T647 0H66ZM672 59Q790 59 876 106T1019 237T1102 438T1130 692Q1130 832 1095 951T994 1156T838 1292T633 1341Q617 1341 596 1341T553 1340T511 1339T475 1337V217Q479 179 490 150T525 101T583 70T672 59Z"/><glyph unicode="E" horiz-adv-x="1223" d="M55 0V45Q67 46 88 48T132 53T175 61T205 70Q239 84 250 109T262 170V1217Q262 1251 251 1276T205 1317Q192 1323 172 1329T129 1340T87 1349T55 1354V1399H1092V1081H1038Q1030 1115 1010 1157T962 1237T902 1302T840 1335Q808 1340 771 1341T688 1343H475V754H625Q664 754 691 760T736 776T765 797T784 817Q794 829 804 852T822 903T835 958T842 1006H897V434H842Q841 456 835 486T821 546T803 599T784 633Q775 645 763 656T733 676T689 690T625 696H475V246Q475 183 483 146T514 90T581 65T694 59Q742 59 788 59T874 64T943 78T991 106Q1013 130 1036 169T1081 251T1118 331T1141 393H1192L1167 0H55Z"/><glyph unicode="F" horiz-adv-x="1124" d="M55 0V45Q67 46 89 47T134 52T176 58T205 66Q239 80 250 106T262 166V1217Q262 1251 251 1276T205 1317Q192 1323 172 1329T129 1340T87 1349T55 1354V1399H1104V1067H1049Q1041 1101 1021 1145T973 1230T915 1300T854 1335Q820 1340 783 1341T700 1343H475V748H631Q667 748 694 754T742 770T776 791T799 811Q808 822 816 842T832 887T845 942T854 999H909V424H854Q852 446 847 476T834 537T817 591T799 627Q790 637 775 648T739 668T691 684T631 690H475V176Q475 142 487 117T530 76Q539 72 558 67T599 58T642 50T676 45V0H55Z"/><glyph unicode="G" horiz-adv-x="1370" d="M635 -31Q566 -31 497 -11T363 49T243 148T146 284T81 458T57 668Q57 828 110 966T259 1206T483 1366T764 1425Q804 1425 848 1416T933 1392T1010 1356T1067 1315L1124 1419H1194L1204 928H1157Q1134 1009 1095 1087T998 1228T864 1328T690 1366Q612 1366 542 1321T417 1188T331 973T299 682Q299 539 330 420T417 216T546 83T705 35Q778 35 833 57T926 115T985 197T1012 293V418Q1012 458 999 490T950 539Q933 546 907 551T853 561T801 567T764 571V618H1399V571Q1385 569 1368 567T1332 561T1296 554T1266 543Q1231 526 1220 498T1208 436V-39L1184 -47L1081 78Q1040 60 987 41T876 5T755 -21T635 -31Z"/><glyph unicode="H" horiz-adv-x="1569" d="M72 0V45Q84 46 103 47T142 52T179 58T205 66Q239 80 250 106T262 166V1217Q262 1251 251 1276T205 1317Q193 1322 176 1328T139 1340T102 1349T72 1354V1399H668V1354Q656 1353 638 1351T600 1344T562 1336T530 1327Q496 1315 486 1288T475 1227V762H1094V1217Q1094 1251 1081 1276T1036 1317Q1025 1322 1007 1328T970 1340T931 1349T899 1354V1399H1497V1354Q1485 1353 1468 1351T1432 1344T1395 1336T1364 1327Q1330 1315 1319 1288T1307 1227V176Q1307 142 1320 118T1364 76Q1372 71 1389 66T1426 57T1465 49T1497 45V0H899V45Q912 46 931 47T971 52T1009 58T1036 66Q1070 80 1082 106T1094 166V694H475V176Q475 142 487 117T530 76Q539 72 557 67T595 58T636 50T668 45V0H72Z"/><glyph unicode="I" horiz-adv-x="745" d="M70 0V45Q83 46 102 47T142 52T181 58T209 66Q243 80 254 105T266 164V1219Q266 1253 255 1277T209 1317Q197 1322 179 1328T140 1340T102 1349T70 1354V1399H676V1354Q664 1353 645 1351T606 1344T568 1336T537 1327Q503 1315 491 1289T479 1229V174Q479 140 492 116T537 76Q545 72 563 67T602 58T643 50T676 45V0H70Z"/><glyph unicode="J" horiz-adv-x="907" d="M252 -35Q179 -35 129 -16T48 31T4 94T-10 158Q-10 188 -1 214T26 260T69 291T125 303Q185 303 219 267T254 174Q254 136 235 98T170 35V25Q175 23 186 22T203 20Q295 20 346 56T423 153T453 289T459 444V1217Q459 1251 447 1275T403 1317Q388 1324 367 1330T325 1342T284 1350T250 1354V1399H872V1354Q860 1353 841 1351T801 1344T761 1336T729 1327Q694 1315 683 1288T672 1227V377Q672 336 660 290T624 198T564 110T482 36T378 -15T252 -35Z"/><glyph unicode="K" horiz-adv-x="1356" d="M72 0V45Q84 46 103 47T142 52T179 58T205 66Q239 80 250 106T262 166V1217Q262 1251 251 1275T205 1317Q193 1323 175 1329T138 1340T102 1349T72 1354V1399H668V1354Q656 1353 638 1351T600 1344T562 1336T530 1327Q496 1315 486 1288T475 1227V725H496Q583 805 664 888T806 1046T905 1182T942 1280Q942 1303 923 1317T880 1339T830 1350T793 1354V1399H1329V1354Q1317 1353 1287 1351T1218 1339T1140 1308T1065 1247Q1006 1179 959 1123T868 1014T775 910T666 799Q738 717 800 645T918 504T1029 363T1141 211Q1167 176 1204 138T1294 74Q1307 68 1325 63T1361 54T1397 48T1427 45V0H741V45Q769 46 803 50T867 63T916 83T936 113Q936 119 929 133T911 166T887 206T860 246Q824 297 775 359T674 483T575 597T496 686H475V176Q475 142 487 117T530 76Q539 72 556 67T594 58T634 50T666 45V0H72Z"/><glyph unicode="L" horiz-adv-x="1155" d="M68 0V45Q81 46 100 48T140 53T178 60T205 68Q239 82 250 109T262 170V1212Q262 1246 251 1272T205 1315Q193 1321 175 1327T137 1339T99 1349T68 1354V1399H670V1354Q658 1353 640 1350T601 1343T562 1334T530 1325Q496 1313 486 1285T475 1223V244Q475 179 481 141T509 84T575 60T694 55Q734 55 776 57T854 66T919 83T961 109Q979 130 1003 168T1051 248T1093 331T1120 397H1169L1141 0H68Z"/><glyph unicode="M" horiz-adv-x="1763" d="M18 0V45Q30 46 52 49T101 59T152 74T195 96Q227 122 241 191T256 379V1128Q256 1191 242 1231T199 1296Q181 1311 160 1321T115 1339T70 1349T29 1354V1399H479L885 369L1212 1225Q1222 1252 1230 1279T1243 1330T1251 1372T1255 1399H1698V1354Q1686 1353 1667 1351T1628 1344T1590 1336T1559 1327Q1523 1315 1512 1288T1501 1227V176Q1501 142 1514 118T1559 76Q1567 71 1585 66T1625 57T1667 49T1700 45V0H1071V45Q1083 46 1106 48T1154 53T1201 61T1233 72Q1264 90 1277 115T1290 176V1223H1288L825 23H780Q772 53 762 88T739 160T714 235T688 307L332 1223H330V389Q330 270 346 203T391 109Q403 98 430 87T486 67T543 52T582 45V0H18Z"/><glyph unicode="N" horiz-adv-x="1444" d="M1149 -14L330 1139V391Q330 274 346 206T391 111Q403 100 430 89T488 68T546 52T586 45V0H18V45Q30 46 56 52T111 67T163 85T195 100Q227 126 241 193T256 381V1102Q256 1124 252 1147T240 1192T221 1233T197 1264Q180 1279 154 1294T100 1323T44 1344T-2 1354V1399H395L1159 324V1016Q1159 1127 1143 1199T1096 1292Q1083 1301 1057 1312T1003 1332T947 1347T905 1354V1399H1468V1354Q1456 1353 1432 1348T1380 1336T1329 1319T1294 1303Q1276 1290 1264 1265T1245 1203T1236 1123T1233 1028V-14H1149Z"/><glyph unicode="O" horiz-adv-x="1423" d="M707 -33Q579 -33 464 16T258 160Q165 256 112 386T59 684Q59 1019 240 1219Q337 1325 456 1378T713 1432Q846 1432 964 1383T1188 1219Q1229 1174 1262 1117T1317 994T1352 856T1364 709Q1364 549 1319 411T1171 164Q1082 68 966 18T707 -33ZM713 31Q818 31 895 82T1023 224T1099 436T1124 702Q1124 785 1115 867T1085 1023T1032 1160T954 1269T848 1342T713 1368Q617 1368 541 1323T410 1190T328 978T299 694Q299 557 324 437T400 226T530 84T713 31Z"/><glyph unicode="P" horiz-adv-x="1141" d="M68 0V45Q81 46 100 48T140 53T178 60T205 68Q239 82 250 109T262 170V1221Q262 1255 251 1284T205 1325Q188 1331 168 1336T129 1344T91 1350T61 1354V1399H696Q778 1399 850 1377T977 1313T1062 1208T1094 1067Q1094 962 1053 883T945 750T791 669T616 641H475V170Q475 136 486 109T530 68Q539 64 557 60T597 53T641 48T682 45V0H68ZM475 702H563Q626 702 671 718T749 762T800 823T830 892T844 959T848 1016Q848 1073 837 1131T798 1235T720 1311T596 1341H475V702Z"/><glyph unicode="Q" horiz-adv-x="1440" d="M1192 -301Q1138 -301 1085 -287T985 -239T903 -148T846 -6Q774 -31 707 -31Q579 -31 465 17T258 160Q165 256 112 386T59 684Q59 1019 240 1219Q337 1325 456 1378T713 1432Q845 1432 964 1382T1188 1219Q1229 1174 1262 1117T1317 995T1352 857T1364 709Q1364 517 1286 361T1040 94Q1055 16 1087 -33T1159 -110T1245 -149T1331 -160Q1369 -160 1401 -145T1461 -107T1509 -56T1546 -2L1583 -33Q1565 -65 1529 -110T1442 -198T1328 -271T1192 -301ZM1016 172Q1016 173 1017 173L1018 172Q1077 263 1100 397T1124 702Q1124 785 1115 867T1085 1023T1032 1160T954 1269T848 1342T713 1368Q616 1368 540 1323T410 1190T328 978T299 694Q299 545 326 415T412 193Q435 263 469 309T544 383T627 422T709 434Q761 434 810 415T899 360T970 277T1016 172ZM713 29Q781 29 834 41Q823 202 774 272T639 342Q622 342 596 336T542 309T488 252T446 152Q499 92 563 61T713 29Z"/><glyph unicode="R" horiz-adv-x="1352" d="M1116 -23Q1001 -23 943 62T866 324Q860 384 848 447T808 563T731 648T602 682H475V170Q475 135 486 109T530 68Q539 64 557 60T597 53T638 48T670 45V0H72V45Q85 46 104 48T142 53T179 60T205 68Q239 82 250 108T262 170V1223Q262 1257 251 1285T205 1325Q193 1329 176 1334T139 1343T103 1350T72 1354V1399H731Q800 1399 870 1381T997 1325T1090 1227T1126 1083Q1126 999 1091 939T1004 837T893 769T784 727V707Q816 703 858 690T942 652T1016 589T1063 494Q1083 407 1095 332T1124 180Q1133 145 1145 126T1170 97T1196 86T1219 84Q1257 84 1284 130T1311 281V311H1366V281Q1366 137 1304 57T1116 -23ZM475 741H584Q642 741 696 755T791 804T858 897T883 1042Q883 1130 863 1187T807 1279T727 1327T631 1341H475V741Z"/><glyph unicode="S" d="M545 -27Q486 -27 435 -18T343 5T269 37T215 74L152 -20H84L72 459H117Q147 378 186 302T277 166T399 71T557 35Q621 35 669 53T749 106T797 187T813 293Q813 387 766 456T625 565Q585 582 550 596T480 625T411 654T336 688Q230 737 170 825T109 1047Q109 1128 139 1197T223 1317T349 1396T506 1425Q543 1425 583 1418T661 1397T734 1366T795 1327L854 1419H924L934 954H889Q860 1041 826 1116T743 1246T628 1332T467 1364Q446 1364 413 1354T349 1320T295 1255T272 1155Q272 1108 282 1071T314 1002T368 943T444 891Q480 870 515 855T585 826T653 799T719 770Q777 741 826 709T912 635T968 535T989 399Q989 306 956 228T863 93T723 5T545 -27Z"/><glyph unicode="T" horiz-adv-x="1180" d="M270 0V45Q283 46 306 48T352 54T396 62T426 70Q460 84 471 111T483 172V1343H397Q366 1343 326 1342T252 1335Q232 1332 211 1316T170 1274T131 1218T97 1156T70 1095T53 1042H4V1399H1176V1042H1126Q1121 1065 1110 1094T1084 1155T1049 1218T1010 1274T968 1315T928 1335Q894 1340 857 1341T782 1343H696V182Q696 148 708 122T752 80Q760 76 780 71T825 60T872 50T907 45V0H270Z"/><glyph unicode="U" horiz-adv-x="1454" d="M735 -33Q612 -33 519 0T363 88T270 216T238 369V1217Q238 1251 225 1275T180 1319Q167 1326 149 1332T111 1342T75 1350T45 1354V1399H643V1354Q631 1353 613 1351T576 1344T540 1336T510 1327Q475 1315 464 1288T453 1227V418Q453 381 458 341T476 262T512 188T572 126T661 84T784 68Q856 68 911 85T1005 130T1071 194T1114 270T1136 349T1143 422V1020Q1143 1132 1127 1202T1079 1294Q1063 1306 1038 1317T985 1336T932 1348T891 1354V1399H1458V1354Q1445 1353 1421 1349T1371 1339T1320 1324T1280 1305Q1262 1292 1250 1266T1231 1203T1222 1124T1219 1032V406Q1219 322 1196 258T1135 144T1046 62T943 7T835 -23T735 -33Z"/><glyph unicode="V" horiz-adv-x="1241" d="M551 -16Q508 116 466 246T384 497T308 729T242 932T187 1097T147 1217Q136 1249 121 1272T72 1317Q60 1324 44 1330T10 1342T-23 1350T-53 1354V1399H539V1354Q515 1352 484 1347T426 1333T379 1310T360 1278Q360 1267 362 1253T369 1227Q375 1205 390 1159T426 1046T476 895T535 714T602 510T676 289Q720 401 763 513T844 727T915 914T969 1059Q998 1136 1005 1180T1012 1243Q1012 1268 991 1288T937 1322T868 1344T799 1354V1399H1307V1354Q1294 1353 1278 1350T1244 1341T1210 1328T1182 1313Q1147 1290 1126 1251T1085 1163Q1066 1114 1035 1035T966 857T885 645T799 418T713 192T635 -16H551Z"/><glyph unicode="W" horiz-adv-x="1827" d="M487 -16Q451 117 415 247T346 498T282 730T225 932T179 1097T147 1217Q138 1249 125 1272T80 1317Q55 1332 21 1342T-39 1354V1399H541V1354Q517 1352 485 1347T425 1333T376 1310T356 1278Q356 1269 358 1253T365 1227Q374 1192 396 1111T451 912T526 646T616 328L868 1128Q868 1153 865 1179T852 1229T826 1275T784 1315Q773 1322 755 1329T716 1341T675 1349T641 1354V1399H1237V1354Q1213 1352 1182 1347T1124 1333T1077 1310T1057 1278Q1057 1267 1059 1253T1065 1227Q1073 1195 1096 1115T1154 918T1233 653T1327 336Q1405 572 1458 753T1546 1059Q1557 1099 1564 1127T1575 1177T1581 1214T1583 1243Q1583 1270 1562 1290T1509 1323T1440 1344T1370 1354V1399H1878V1354Q1852 1352 1818 1340T1759 1313Q1722 1290 1701 1252T1663 1163Q1642 1100 1615 1018T1557 840T1492 638T1423 422T1354 201T1286 -16H1202Q1160 140 1120 287T1041 568T969 819T907 1034L573 -16H487Z"/><glyph unicode="X" horiz-adv-x="1401" d="M-18 0V45Q-5 46 12 48T47 54T82 63T113 74Q166 100 202 138T264 211Q306 266 344 318T422 426T504 540T596 668Q498 819 415 946T254 1188Q242 1205 230 1223T203 1259T169 1293T125 1325Q115 1330 97 1335T58 1344T18 1350T-14 1354V1399H676V1354Q647 1352 614 1349T553 1337T506 1310T487 1264Q487 1236 520 1176T602 1036Q634 987 669 935T739 829Q830 951 895 1047Q949 1125 979 1181T1010 1264Q1010 1293 993 1310T950 1336T893 1349T834 1354V1399H1364V1354Q1352 1353 1335 1351T1299 1345T1264 1336T1233 1325Q1179 1299 1144 1261T1083 1188Q1046 1140 1011 1091T938 991T863 886T782 772Q906 583 998 441T1153 211Q1176 177 1206 141T1282 70Q1290 64 1307 60T1346 52T1387 48T1419 45V0H731V45Q759 46 792 49T854 62T901 88T920 135Q920 148 909 173T880 232T837 304T788 383Q767 417 745 450T704 512T668 567T639 610Q601 558 561 503T485 395Q454 350 428 309T381 234T350 175T338 135Q338 106 355 89T397 62T454 50T514 45V0H-18Z"/><glyph unicode="Y" horiz-adv-x="1147" d="M240 0V45Q252 46 274 48T320 54T365 62T395 70Q429 84 441 111T453 172V528Q453 559 439 597T403 682Q340 821 281 944T162 1180Q137 1226 109 1261T49 1319Q37 1326 21 1332T-11 1343T-44 1350T-74 1354V1399H541V1354Q516 1352 484 1348T423 1335T374 1313T354 1282Q354 1268 385 1199T471 1018Q505 947 547 864T637 688Q690 781 736 865T819 1018Q870 1115 900 1178T930 1255Q930 1280 911 1298T862 1327T798 1345T731 1354V1399H1227V1354Q1218 1353 1203 1349T1171 1338T1139 1325T1116 1313Q1098 1301 1085 1291T1060 1269T1038 1243T1012 1208Q973 1155 937 1097T864 975T792 839T717 686Q705 662 695 632T678 571T668 510T664 455V182Q664 147 676 121T721 80Q729 76 750 71T795 60T842 50T877 45V0H240Z"/><glyph unicode="Z" horiz-adv-x="1141" d="M-2 0V25L858 1343H530Q484 1343 443 1341T373 1333Q336 1325 298 1290T225 1209T164 1112T123 1022H72L111 1399H1112V1374L252 55H633Q674 55 715 57T793 66T856 83T899 109Q929 139 957 179T1011 261T1055 345T1087 420H1137L1094 0H-2Z"/><glyph unicode="[" horiz-adv-x="668" d="M143 -279V1485H596V1423H311V-217H596V-279H143Z"/><glyph unicode="\" horiz-adv-x="733" d="M674 -434L96 1513L184 1540L758 -408L674 -434Z"/><glyph unicode="]" horiz-adv-x="668" d="M72 -279V-217H356V1423H72V1485H524V-279H72Z"/><glyph unicode="^" horiz-adv-x="1188" d="M133 610L553 1434H635L1055 610H948L594 1317L240 610H133Z"/><glyph unicode="_" horiz-adv-x="1106" d="M-8 -317V-225H1114V-317H-8Z"/><glyph unicode="`" horiz-adv-x="922" d="M635 1073Q579 1122 537 1157T460 1220T401 1267T354 1307Q322 1336 306 1358T289 1419Q289 1434 295 1448T313 1473T338 1490T369 1497Q403 1497 430 1479T483 1409Q498 1380 514 1350T551 1282T597 1200T659 1098L635 1073Z"/><glyph unicode="a" horiz-adv-x="901" d="M272 -25Q224 -25 185 -10T117 34T73 103T57 193Q57 256 72 299T113 373T171 422T238 457Q278 474 321 489T405 519T483 550T551 586V700Q551 714 548 748T530 817T484 880T397 907Q373 907 356 900T327 881T307 858T293 838Q293 815 302 783T311 717Q311 697 301 681T274 652T235 634T188 627Q166 627 150 635T123 659T107 693T102 735Q102 781 129 820T201 889T300 935T410 952Q480 952 539 943T643 903T712 812T737 649Q737 581 736 511T732 378T729 265T727 190Q727 176 733 159T750 125T777 97T813 86Q834 86 846 99T866 135T876 186T881 244H926Q922 172 906 122T864 41T803 -5T723 -20Q657 -20 616 13T553 117H547Q496 52 426 14T272 -25ZM375 70Q410 70 435 76T479 95T513 126T545 168L553 526Q487 502 432 478T338 420T276 339T254 223Q254 149 286 110T375 70Z"/><glyph unicode="b" horiz-adv-x="1004" d="M174 -45L133 -37Q135 -6 136 36T139 127T140 230T141 340V1315Q141 1349 127 1382T90 1432Q82 1437 67 1443T35 1453T-1 1461T-31 1466V1505L311 1528L326 1513V829L330 827Q346 846 370 868T427 909T497 940T580 952Q659 952 727 918T847 819T927 663T956 459Q956 354 923 265T832 110T701 8T545 -29Q499 -29 456 -19T374 8T306 41T254 74L174 -45ZM522 14Q573 14 615 43T687 128T733 266T750 453Q750 529 738 602T697 732T623 823T510 858Q445 858 401 837T326 772V201Q333 176 348 144T386 83T443 34T522 14Z"/><glyph unicode="c" horiz-adv-x="795" d="M455 -25Q353 -25 277 12T149 115T73 271T47 467Q47 561 76 649T160 804T293 911T469 952Q541 952 595 933T686 881T741 805T760 715Q760 664 733 632T655 600Q641 600 622 605T586 621T557 652T545 702Q545 734 548 752T556 783T565 805T569 829Q561 874 538 888T467 903Q425 903 386 882T317 811T269 681T250 485Q250 392 266 315T315 183T393 97T500 66Q596 66 657 112T764 248L805 219Q779 168 742 124T660 46T563 -6T455 -25Z"/><glyph unicode="d" horiz-adv-x="1028" d="M432 -27Q351 -27 281 8T159 109T77 267T47 475Q47 580 81 668T172 819T305 917T461 952Q505 952 542 945T608 929T656 910T684 897V1303Q682 1319 679 1336T670 1370T656 1399T635 1421Q623 1430 604 1438T562 1452T516 1462T473 1468V1505L854 1528L868 1513V184Q871 152 882 127T915 84Q924 78 938 74T968 66T1000 60T1028 57V18L698 -4L686 10V98L678 100Q663 82 639 60T584 19T514 -14T432 -27ZM502 63Q566 63 607 88T684 158V737Q676 763 661 793T622 848T563 890T483 907Q432 907 390 876T318 787T271 646T254 457Q254 380 267 309T311 183T388 96T502 63Z"/><glyph unicode="e" horiz-adv-x="838" d="M465 -25Q358 -25 280 14T149 121T72 279T47 471Q47 563 74 650T152 804T278 911T446 952Q543 952 610 920T720 834T782 709T801 559V541H248V518Q248 419 263 336T311 193T395 100T518 66Q570 66 607 77T674 110T727 167T778 248L815 223Q791 169 756 124T675 45T577 -6T465 -25ZM248 586L604 590Q604 645 598 701T573 802T524 876T444 905Q403 905 368 882T306 818T265 717T248 586Z"/><glyph unicode="f" horiz-adv-x="582" d="M47 0V41Q72 43 92 46T131 55Q157 65 169 89T182 147V840H-6V922H182V985Q182 1113 210 1218T309 1405Q368 1473 440 1501T586 1530Q640 1530 678 1514T739 1473T773 1415T784 1350Q784 1335 778 1317T760 1282T728 1254T680 1243Q664 1243 645 1247T609 1261T581 1290T569 1335Q569 1358 577 1384T586 1444Q583 1466 569 1474T539 1483Q496 1483 466 1459T415 1383T384 1247T369 1047Q368 1035 368 1019T367 986T367 952T367 922H600V840H367V158Q367 126 380 102T418 66Q428 61 443 57T476 50T511 44T541 41V0H47Z"/><glyph unicode="g" horiz-adv-x="932" d="M432 -463Q323 -463 246 -446T119 -397T46 -318T23 -213Q23 -170 41 -131T96 -63T187 -15T315 6V20Q288 29 254 41T190 75T138 126T117 201Q117 238 135 265T179 311T234 344T287 367V379Q185 421 129 490T72 651Q72 722 98 778T171 872T278 931T410 952Q458 952 501 943T579 922T638 901T672 891Q697 909 718 920T762 939T808 949T862 952Q879 952 895 945T924 924T944 893T952 854Q952 809 931 782T870 754Q820 754 802 787T784 885Q742 885 718 877T674 852V836Q706 795 724 741T743 641Q743 574 714 521T640 429T537 371T424 350H317Q293 336 277 316T260 262Q260 224 279 205T327 176T390 165T455 162Q475 161 505 160T566 156T624 153T666 150Q706 147 748 128T825 73T881 -14T903 -129Q903 -200 874 -261T785 -367T638 -437T432 -463ZM408 397Q445 397 472 417T518 472T544 552T553 647Q553 698 545 745T520 828T474 885T406 907Q364 907 337 887T294 831T271 750T264 653Q264 599 274 552T304 471T349 417T408 397ZM465 -410Q595 -410 666 -351T737 -170Q737 -152 735 -132T723 -91T696 -54T647 -25Q619 -20 551 -15T362 -10Q316 -21 285 -38T235 -82T208 -143T199 -225Q199 -256 213 -288T259 -348T342 -392T465 -410Z"/><glyph unicode="h" horiz-adv-x="1055" d="M27 0V41Q51 43 71 46T111 55Q137 65 149 89T162 147V1315Q160 1331 157 1348T147 1382T131 1411T111 1434Q102 1440 87 1445T53 1455T18 1462T-12 1466V1505L334 1528L346 1513V784H350Q376 812 404 842T468 896T548 936T653 952Q717 952 763 929T840 864T884 762T899 629V156Q899 88 948 63Q967 54 987 49T1032 41V0H578V41Q601 43 624 46T664 55Q688 65 700 89T713 147V633Q713 686 701 726T669 794T623 836T567 850Q519 850 481 836T416 802T372 758T346 717V158Q346 124 359 101T395 66Q414 55 436 49T481 41V0H27Z"/><glyph unicode="i" horiz-adv-x="522" d="M258 1235Q232 1235 210 1245T171 1272T145 1311T135 1360Q135 1386 144 1409T171 1450T210 1478T258 1489Q286 1489 309 1480T350 1454T376 1415T385 1368Q385 1341 376 1317T349 1275T309 1246T258 1235ZM47 0V41Q72 43 92 46T131 55Q157 65 169 90T182 147V735Q179 767 167 794T131 838Q123 844 109 850T79 862T47 872T18 877V915L354 938L367 924V160Q367 128 380 103T418 66Q439 55 462 49T502 41V0H47Z"/><glyph unicode="j" horiz-adv-x="532" d="M279 1235Q253 1235 231 1245T192 1272T166 1311T156 1360Q156 1386 165 1409T192 1450T231 1478T279 1489Q307 1489 330 1480T370 1454T396 1415T406 1368Q406 1341 397 1317T370 1275T330 1246T279 1235ZM27 -463Q-66 -463 -118 -421T-170 -309Q-170 -290 -162 -271T-138 -236T-103 -211T-59 -201Q-41 -201 -21 -206T15 -223T42 -254T53 -301Q53 -330 45 -357T37 -410Q42 -412 52 -414T68 -416Q108 -416 135 -392T178 -315T200 -179T207 23V727Q204 759 193 788T158 836Q149 842 129 849T84 862T37 873T2 879V915L379 938L391 924V84Q391 -44 367 -150T274 -336Q216 -404 158 -433T27 -463Z"/><glyph unicode="k" horiz-adv-x="979" d="M27 0V41Q51 43 71 46T111 55Q137 65 149 89T162 147V1313Q162 1350 148 1382T111 1432Q102 1439 86 1445T52 1455T17 1462T-12 1466V1505L334 1528L346 1513V473Q377 505 414 545T488 626T561 708T625 784Q633 794 639 807T645 829Q645 842 634 851T604 868T565 879T526 885V926H924V887Q888 877 859 865T802 838T749 805T694 764Q651 729 611 690T524 600Q595 564 645 512T734 397T805 263T872 119Q882 97 899 83T940 57Q965 46 988 43T1016 39V0H702Q692 39 675 88T634 187T583 285T527 370T468 430T410 453Q384 453 370 448T346 436V158Q346 124 359 101T397 66Q417 56 440 50T487 41V0H27Z"/><glyph unicode="l" horiz-adv-x="510" d="M29 0V41Q53 43 74 46T115 55Q141 65 152 89T164 147V1309Q164 1344 151 1376T115 1425Q106 1431 90 1438T54 1451T17 1461T-14 1466V1505L336 1528L348 1513V160Q348 90 399 66Q419 55 439 49T483 41V0H29Z"/><glyph unicode="m" horiz-adv-x="1606" d="M45 0V41Q70 43 90 46T129 55Q155 65 167 89T180 147V739Q177 771 165 797T129 840Q114 852 86 863T31 877V915L348 938L362 924V782H367Q394 811 421 841T483 896T561 936T664 952Q750 952 810 905T901 776H903Q929 805 958 836T1023 893T1104 935T1208 952Q1272 952 1317 927T1392 858T1436 755T1450 625V158Q1450 124 1461 100T1497 63Q1540 44 1587 41V0H1137V41Q1160 43 1178 46T1214 55Q1240 65 1252 89T1264 147V635Q1264 688 1253 728T1223 795T1177 836T1122 850Q1074 850 1038 836T975 801T933 758T907 719V158Q907 88 952 63Q972 54 991 49T1034 41V0H598V41Q621 43 638 46T674 55Q699 65 710 89T721 147V635Q721 688 710 728T679 795T633 836T578 850Q530 850 494 836T432 800T389 756T365 717V160Q365 90 412 66Q447 44 494 41V0H45Z"/><glyph unicode="n" horiz-adv-x="1073" d="M45 0V41Q70 43 90 46T129 55Q155 65 167 89T180 147V735Q177 767 165 797T129 844Q114 856 87 865T35 877V915L350 938L365 924V784H367Q394 812 421 842T483 896T562 936T666 952Q730 952 777 929T856 864T903 762T918 629V156Q918 122 929 99T965 63Q985 54 1005 49T1051 41V0H596V41Q619 43 642 46T682 55Q708 65 719 89T731 147V633Q731 686 719 726T687 794T640 836T584 850Q536 850 498 836T433 802T389 758T365 717V158Q365 90 412 66Q430 55 453 49T498 41V0H45Z"/><glyph unicode="o" horiz-adv-x="961" d="M471 -29Q387 -29 310 5T175 102T82 255T47 459Q47 568 78 658T167 814T306 916T485 952Q584 952 663 916T797 815T883 663T913 473Q913 371 884 280T799 120T661 11T471 -29ZM483 18Q542 18 585 54T655 152T696 296T709 471Q709 552 698 629T661 768T591 867T483 905Q436 905 401 887T341 837T298 763T271 673T256 575T252 475Q252 383 264 301T304 155T376 55T483 18Z"/><glyph unicode="p" horiz-adv-x="1026" d="M8 -463V-422Q33 -420 63 -415T113 -403Q139 -394 150 -368T162 -307V739Q159 771 148 798T113 842Q104 848 92 854T65 864T35 872T8 877V915L332 938L346 926V821L352 819Q368 838 392 861T449 904T519 938T602 952Q681 952 750 917T870 816T950 660T979 455Q979 350 945 262T854 110T723 11T567 -25Q486 -25 436 -6T354 39H346V-295Q346 -329 359 -354T399 -391Q409 -396 426 -401T463 -410T500 -418T530 -422V-463H8ZM543 18Q594 18 636 46T709 130T755 266T772 453Q772 529 760 602T719 732T645 823T532 858Q467 858 423 834T346 766V182Q354 158 369 129T408 76T465 35T543 18Z"/><glyph unicode="q" horiz-adv-x="1004" d="M526 -463V-422Q538 -421 553 -420T583 -416T611 -410T635 -403Q663 -394 673 -368T684 -307V92L678 94Q663 76 639 56T584 17T514 -13T432 -25Q351 -25 281 9T159 107T77 265T47 475Q47 580 82 668T175 819T308 917T465 952Q520 952 564 941T643 914T703 882T743 856L842 981L883 973Q881 942 879 895T874 795T870 695T868 614V-291Q868 -325 880 -352T918 -391Q939 -402 972 -410T1030 -422V-463H526ZM502 63Q566 63 607 84T684 150V737Q676 763 661 793T622 849T563 892T483 909Q432 909 390 878T318 788T271 646T254 457Q254 380 267 309T311 183T388 96T502 63Z"/><glyph unicode="r" horiz-adv-x="723" d="M45 0V41Q70 43 90 46T129 55Q155 65 167 89T180 147V735Q177 767 165 797T129 844Q114 856 87 865T35 877V915L350 938L365 924V784H367Q427 869 487 908T608 948Q632 948 654 938T694 911T722 871T733 823Q733 796 726 773T704 732T671 704T627 694Q582 694 550 717T518 793Q518 808 525 821T532 854Q499 854 472 840T423 805T387 761T365 721V158Q365 124 377 101T414 66Q425 60 441 56T474 49T507 44T537 41V0H45Z"/><glyph unicode="s" horiz-adv-x="735" d="M360 -29Q326 -29 292 -21T227 -1T173 25T137 53L119 -10H57L49 307H92Q97 282 109 251T140 188T183 126T237 73T300 35T371 20Q417 20 449 33T503 71T533 127T543 197Q543 234 529 262T488 313T422 353T332 389Q287 404 241 427T158 484T96 566T72 680Q72 737 93 786T153 872T245 930T362 952Q418 952 471 939T559 899L573 954H631L643 672H602Q595 715 575 757T523 832T450 885T362 905Q324 905 297 892T251 857T224 810T215 758Q215 717 227 690T265 642T330 604T424 567Q480 546 527 520T610 458T664 375T684 264Q684 196 658 142T588 49T485 -9T360 -29Z"/><glyph unicode="t" horiz-adv-x="627" d="M393 -20Q281 -20 222 52T162 262V838H-14V922H166V1239H344V922H596V838H344V287Q344 244 351 209T374 148T415 110T479 96Q512 96 531 109T561 145T577 195T586 254H631Q626 197 609 147T563 60T491 2T393 -20Z"/><glyph unicode="u" horiz-adv-x="1040" d="M395 -25Q330 -25 285 0T211 70T169 176T156 309V739Q153 771 142 798T109 842Q92 854 65 863T12 874V913L328 938L342 924V281Q342 228 352 188T382 122T426 83T481 70Q529 70 565 84T627 117T669 159T694 197V745Q691 777 680 804T647 848Q632 860 598 866T528 874V913L864 938L879 924V182Q879 150 891 126T926 84Q943 72 968 66T1018 57V18L709 -4L696 10V135H690Q664 106 637 77T576 26T498 -11T395 -25Z"/><glyph unicode="v" horiz-adv-x="856" d="M399 -14Q367 76 341 147T292 280T248 396T205 509T158 633T102 782Q94 804 79 821T44 851T3 872T-39 883V926H395V879Q379 878 360 876T325 869T298 856T287 836Q287 834 290 823T299 793Q311 755 333 694T383 558T442 402T502 242H504Q528 307 551 368T596 490T641 616T688 754Q691 765 694 782T698 811Q698 826 680 839T639 862T592 877T557 885V926H907V887Q894 885 874 876T832 851T792 815T764 772Q735 702 709 636T656 501T603 360T545 207Q526 156 508 105T471 -14H399Z"/><glyph unicode="w" horiz-adv-x="1348" d="M406 -14Q373 77 346 152T295 292T250 415T206 531T160 649T109 780Q101 800 86 818T52 849T12 872T-29 883V926H393V879Q377 878 359 876T326 869T301 856T291 836Q291 834 295 823T305 793Q318 756 339 696T387 563T442 409T500 250H502Q544 369 580 483T657 717Q654 726 646 748T625 795Q603 841 571 859T500 883V926H905V881Q890 880 873 879T840 873T815 861T805 840Q805 838 809 825T819 793Q831 756 852 694T899 557T953 402T1008 248H1010Q1036 325 1058 392T1099 521T1137 642T1176 762Q1181 776 1182 791T1184 815Q1184 833 1167 846T1127 868T1082 881T1049 885V926H1405V885Q1386 883 1363 873T1317 847T1275 810T1247 762Q1217 678 1193 613T1146 486T1098 357T1042 203Q1032 176 1024 152T1009 102T993 48T975 -14H915Q885 79 856 163T799 328T744 486T688 641Q650 538 616 429T539 205Q529 178 520 153T503 102T487 48T469 -14H406Z"/><glyph unicode="x" horiz-adv-x="868" d="M-14 0V39Q64 71 107 106T164 164Q189 198 239 265T356 434Q332 475 304 521T248 613T192 705T139 791Q121 821 102 839T65 866T30 879T-2 883V926H408V883Q394 883 378 881T349 875T326 866T317 854Q317 845 322 834T334 809Q341 794 357 767T392 707T434 637T477 565Q497 596 513 622T546 673T578 726T616 788Q621 795 624 805T627 825Q627 835 614 845T583 863T547 877T520 885V926H860V887Q791 864 744 830T678 770Q664 751 648 729T612 677T567 609T508 520Q574 412 634 316T737 147Q749 126 761 109T789 80T827 58T883 43V0H455V43Q473 44 491 47T523 56T547 69T557 86Q557 94 548 113T532 147Q522 163 507 188T473 244T432 312T387 389Q366 359 346 331T306 275T267 216T227 152Q219 138 214 127T209 104Q209 89 224 78T260 58T300 46T328 41V0H-14Z"/><glyph unicode="y" horiz-adv-x="848" d="M113 -463Q93 -463 68 -456T21 -432T-17 -389T-33 -324Q-33 -304 -26 -283T-5 -245T28 -216T72 -205Q87 -205 106 -209T143 -225T172 -256T184 -307V-375Q203 -370 223 -352T262 -308T299 -249T334 -185Q372 -109 406 -16Q373 74 347 145T297 278T252 394T207 508T159 633T102 782Q94 804 79 821T44 851T3 872T-39 883V926H389V879Q374 878 356 876T323 869T297 856T287 836Q287 834 290 823T299 793Q311 756 334 695T384 561T442 407T502 248H504Q528 313 550 373T593 493T635 618T682 754Q687 766 690 782T694 811Q694 826 677 839T636 862T591 877T557 885V926H901V887Q888 885 868 875T826 850T787 814T760 772Q743 731 718 669T665 534T607 383T551 233Q532 182 516 137T487 56T467 -2T457 -31Q416 -134 383 -206T320 -327T266 -402T215 -442T166 -459T113 -463Z"/><glyph unicode="z" horiz-adv-x="801" d="M35 0V31L539 872H461Q423 872 386 872T316 869T255 862T209 850Q196 845 183 828T158 786T136 728T119 659H72V926H760V907L250 53Q294 51 328 51T397 51Q434 51 482 51T580 57Q615 60 633 84T666 137Q673 151 680 172T695 218T709 267T719 309H764V0H35Z"/><glyph unicode="{" horiz-adv-x="788" d="M731 -346Q635 -346 558 -333T427 -282T344 -176T315 4Q315 35 320 68T330 135T341 202T346 268Q346 349 325 399T265 477T173 517T55 535V643Q120 649 173 661T265 701T325 778T346 909Q346 941 341 974T331 1042T320 1109T315 1174Q315 1284 344 1352T427 1459T558 1510T731 1524V1477Q688 1474 646 1467T571 1437T518 1366T498 1235Q498 1204 500 1175T506 1118T511 1061T514 1001Q514 894 487 826T413 715T307 651T180 614V563Q246 548 306 526T413 462T486 352T514 176Q514 145 512 117T506 60T501 3T498 -57Q498 -141 518 -188T571 -259T646 -289T731 -299V-346Z"/><glyph unicode="|" horiz-adv-x="549" d="M229 -424V1528H319V-424H229Z"/><glyph unicode="}" horiz-adv-x="788" d="M57 -346V-299Q100 -296 142 -290T217 -259T270 -188T291 -57Q291 -26 289 2T283 59T277 116T274 176Q274 284 301 352T375 462T481 526T608 563V614Q542 629 482 651T375 715T302 825T274 1001Q274 1032 276 1060T282 1117T288 1175T291 1235Q291 1319 271 1366T217 1436T142 1467T57 1477V1524Q153 1524 230 1511T361 1459T444 1353T473 1174Q473 1142 468 1109T458 1042T447 975T442 909Q442 828 463 779T522 701T614 661T733 643V535Q668 529 615 518T523 478T464 399T442 268Q442 236 447 203T457 136T468 69T473 4Q473 -107 444 -175T361 -282T230 -333T57 -346Z"/><glyph unicode="~" horiz-adv-x="1106" d="M154 383L113 397Q125 442 152 487T216 569T299 629T395 653Q453 653 501 639T591 608T672 577T750 563Q789 563 818 569T871 588T913 624T950 680L991 666Q979 621 952 576T888 494T805 434T709 410Q647 410 599 424T510 455T431 486T354 500Q315 500 286 494T233 475T191 439T154 383Z"/><glyph unicode=" " horiz-adv-x="215"/><glyph unicode="¡" horiz-adv-x="668" d="M340 1161Q311 1161 287 1172T244 1201T216 1245T205 1298Q205 1326 215 1351T244 1394T286 1423T340 1434Q368 1434 392 1424T435 1395T463 1351T473 1298Q473 1270 463 1245T435 1202T393 1172T340 1161ZM340 -25Q314 -25 292 -14T253 16T227 61T217 115Q217 136 222 181T235 289T254 432T275 601T296 786T315 979H367Q374 882 383 787T403 603T424 435T443 292T456 183T461 115Q461 86 452 61T426 17T388 -14T340 -25Z"/><glyph unicode="¢" horiz-adv-x="885" d="M305 -236L262 -225L340 152Q274 177 224 221T140 326T89 460T72 621Q72 715 101 802T186 957T321 1065T502 1106Q513 1106 522 1106T541 1104L598 1372L645 1362L588 1098Q643 1088 686 1067T758 1015T803 947T819 868Q819 817 791 786T713 754Q699 754 681 758T648 775T621 806T610 856Q610 888 614 906T622 937T631 958T635 983Q630 1011 617 1026T580 1049L412 258Q462 219 528 219Q577 219 615 231T685 266T742 323T791 401L831 375Q807 324 772 279T693 201T597 148T485 129Q459 129 434 131T385 139L305 -236ZM371 293L532 1057H502Q459 1057 418 1035T345 964T294 835T274 639Q274 528 299 437T371 293Z"/><glyph unicode="£" horiz-adv-x="1126" d="M719 -41Q670 -41 625 -27T537 11T455 62T377 117Q354 85 329 58T277 10T219 -21T154 -33Q118 -33 87 -22T32 10T-5 58T-18 117Q-18 149 -3 180T41 236T108 276T193 291Q233 291 279 280T375 250Q380 275 380 299T381 348Q381 398 373 445T354 530H102V578H344Q336 610 330 642T317 707H102V754H309Q303 794 297 844T291 934Q291 1034 323 1124T413 1283T548 1392T717 1432Q800 1432 861 1410T963 1349T1024 1259T1044 1151Q1044 1125 1038 1099T1017 1053T981 1021T928 1008Q896 1008 875 1019T840 1047T821 1084T815 1124Q815 1149 822 1168T839 1202T861 1231T883 1260Q882 1289 869 1311T835 1349T785 1372T727 1380Q682 1380 641 1361T569 1302T520 1197T502 1042Q502 973 514 903T532 754H856V707H535Q535 694 536 681T537 653Q537 635 536 617T532 578H856V530H526Q517 470 496 389T436 227Q478 212 522 197T612 169T703 148T797 139Q867 139 913 166T987 239T1030 341T1053 459L1098 455Q1098 405 1089 349T1060 238T1009 133T936 44T840 -18T719 -41ZM145 27Q219 27 266 60T340 143Q294 175 250 197T160 219Q131 219 110 210T74 185T53 152T45 115Q45 73 74 50T145 27Z"/><glyph unicode="¥" horiz-adv-x="1186" d="M256 0V45Q270 46 293 47T340 52T385 58T418 66Q446 75 463 101T481 162V399H160V446H481V594H160V641H473Q468 660 461 682T442 727Q385 851 327 973T215 1194Q163 1287 98 1325Q75 1339 44 1345T-14 1354V1399H563V1354Q540 1352 510 1349T451 1340T404 1323T385 1298Q385 1289 409 1236T473 1098Q508 1023 554 931T651 737Q707 834 753 920T836 1077Q874 1153 896 1205T918 1276Q918 1296 901 1310T858 1333T799 1347T737 1354V1399H1204V1354Q1196 1353 1182 1350T1153 1341T1125 1331T1104 1321Q1086 1311 1074 1303T1050 1284T1026 1259T999 1223Q931 1130 865 1007T727 731Q718 711 709 689T692 641H1012V594H684Q682 585 681 561T679 511Q678 481 678 446H1012V399H678V172Q678 140 693 113T737 74Q749 68 769 63T811 55T855 49T891 45V0H256Z"/><glyph unicode="¦" horiz-adv-x="549" d="M229 745V1528H319V745H229ZM229 -424V379H319V-424H229Z"/><glyph unicode="§" horiz-adv-x="1085" d="M471 -465Q406 -465 359 -444T280 -390T233 -323T217 -258Q217 -190 250 -155T340 -119Q360 -119 378 -125T411 -143T435 -173T444 -215Q444 -243 431 -257T403 -281T375 -301T362 -332Q362 -375 392 -396T485 -418Q570 -418 610 -358T651 -188Q651 -151 645 -122T626 -64T592 -4T541 66Q512 105 482 138T420 205T351 279T272 369Q234 413 206 451T157 528T127 606T117 694Q117 756 141 803T203 882T288 933T383 958Q349 1009 325 1070T301 1208Q301 1268 326 1323T396 1419T500 1486T629 1511Q691 1511 736 1490T810 1437T854 1371T868 1307Q868 1239 835 1203T745 1167Q725 1167 707 1173T674 1191T650 1221T641 1264Q641 1293 654 1308T684 1333T713 1352T727 1380Q727 1422 700 1442T608 1462Q525 1462 481 1409T436 1251Q436 1213 443 1184T465 1126T502 1067T553 997Q582 958 610 925T670 856T736 782T815 692Q854 646 884 607T935 529T966 450T977 362Q977 299 953 255T890 181T803 135T705 111Q742 55 768 -11T795 -160Q795 -220 770 -275T701 -372T598 -439T471 -465ZM680 145Q711 154 740 167T792 200T828 248T842 317Q842 368 813 421T745 520Q640 647 554 745T408 922Q375 916 345 905T293 874T257 821T244 739Q244 718 252 692T275 640T307 587T344 537Q395 475 442 423T532 323T612 232T680 145Z"/><glyph unicode="¨" horiz-adv-x="922" d="M651 1200Q627 1200 607 1209T571 1234T546 1271T537 1317Q537 1341 546 1363T570 1401T606 1428T651 1438Q678 1438 700 1429T738 1404T763 1368T772 1325Q772 1299 763 1277T738 1237T700 1210T651 1200ZM264 1200Q240 1200 220 1209T184 1234T159 1271T150 1317Q150 1341 159 1363T183 1401T219 1428T264 1438Q291 1438 313 1429T351 1404T376 1368T385 1325Q385 1299 376 1277T351 1237T313 1210T264 1200Z"/><glyph unicode="©" horiz-adv-x="1946" d="M975 -326Q851 -326 737 -295T523 -205T342 -66T202 113T112 324T80 559Q80 680 111 792T201 1002T340 1180T521 1319T736 1408T975 1440Q1098 1440 1212 1409T1425 1319T1605 1181T1744 1002T1834 792T1866 559Q1866 437 1834 324T1745 113T1606 -66T1425 -205T1212 -294T975 -326ZM975 -256Q1087 -256 1190 -227T1382 -146T1544 -19T1669 146T1749 341T1778 559Q1778 671 1750 774T1669 967T1545 1131T1383 1257T1190 1339T975 1368Q862 1368 759 1339T566 1258T403 1131T277 968T197 775T168 559Q168 446 196 342T277 147T402 -18T565 -145T758 -227T975 -256ZM993 72Q893 72 812 105T672 201T583 351T551 551Q551 657 585 748T682 906T831 1011T1020 1049Q1045 1049 1072 1044T1124 1030T1172 1010T1212 985L1251 1063H1307L1313 692H1268Q1250 749 1229 802T1176 896T1098 962T983 987Q939 987 898 962T824 885T772 753T752 561Q752 472 772 399T828 273T915 191T1030 162Q1085 162 1126 179T1199 225T1254 294T1298 379L1343 358Q1322 304 1292 253T1219 161T1121 97T993 72Z"/><glyph unicode="ª" horiz-adv-x="657" d="M236 858Q176 858 137 893T98 989Q98 1027 107 1053T132 1097T166 1128T205 1149Q227 1159 251 1167T298 1184T342 1201T379 1219V1278Q379 1286 378 1305T370 1343T347 1378T301 1393Q287 1393 279 1389T265 1380T256 1369T248 1358Q248 1342 253 1326T258 1290Q258 1265 237 1250T184 1235Q153 1235 139 1254T125 1300Q125 1328 141 1352T184 1394T242 1422T307 1432Q347 1432 382 1427T443 1402T485 1348T500 1251Q500 1213 499 1173T497 1096T495 1032T494 989Q494 983 496 974T504 957T518 942T537 936Q550 936 557 944T567 964T572 993T573 1024H604Q604 942 576 901T483 860Q407 860 383 944Q352 904 317 881T236 858ZM106 633V692H578V633H106ZM285 922Q305 922 318 926T341 939T358 957T375 979L379 1174Q343 1159 314 1145T265 1113T234 1071T223 1010Q223 922 285 922Z"/><glyph unicode="«" horiz-adv-x="1042" d="M889 31Q825 88 767 139T659 235T570 315T504 373Q492 383 485 389T472 404T465 425T463 459Q463 477 465 489T471 509T483 524T500 541Q524 561 564 595T655 674T767 772T889 885L924 858L633 455L924 57L889 31ZM518 31Q454 88 396 139T288 235T199 315T133 373Q121 383 113 389T101 404T94 425T92 459Q92 477 93 489T99 509T111 524T129 541Q153 561 193 595T285 674T396 772T518 885L551 858L262 455L551 57L518 31Z"/><glyph unicode="¬" horiz-adv-x="1188" d="M954 66V512H100V606H1057V66H954Z"/><glyph unicode="­" horiz-adv-x="655" d="M66 436V590H590V436H66Z"/><glyph unicode="®" horiz-adv-x="930" d="M465 694Q386 694 318 722T200 801T121 920T92 1067Q92 1146 120 1214T199 1332T318 1411T465 1440Q544 1440 612 1412T730 1333T809 1214T838 1067Q838 988 810 920T731 802T612 723T465 694ZM465 727Q536 727 597 753T702 826T772 934T797 1067Q797 1138 772 1200T703 1308T597 1380T465 1407Q393 1407 333 1381T228 1308T158 1200T133 1067Q133 996 158 934T227 826T332 754T465 727ZM610 866Q573 866 550 892T520 971Q518 989 514 1006T500 1038T474 1060T430 1069H416V932Q416 921 419 914T434 901Q440 898 453 897T475 895V872H285V895Q293 895 308 897T326 901Q344 910 344 932V1233Q344 1244 341 1252T326 1264Q316 1267 305 1269T285 1272V1292H479Q502 1292 526 1287T569 1271T601 1241T614 1198Q614 1172 602 1154T572 1124T534 1104T496 1092V1085Q506 1083 520 1079T549 1068T574 1049T590 1020Q596 995 600 972T610 928Q615 911 623 906T639 901Q651 901 658 910T666 952H686Q686 907 669 887T610 866ZM416 1096H428Q449 1096 467 1100T498 1114T520 1142T528 1186Q528 1212 522 1228T504 1253T478 1265T444 1268H416V1096Z"/><glyph unicode="¯" horiz-adv-x="922" d="M156 1223V1346H764V1223H156Z"/><glyph unicode="°" horiz-adv-x="799" d="M395 903Q336 903 282 922T187 978T121 1071T96 1200Q96 1267 122 1324T191 1422T287 1486T395 1509Q453 1509 508 1491T607 1435T676 1339T702 1202Q702 1139 676 1085T607 990T509 926T395 903ZM401 958Q437 958 469 975T526 1024T565 1101T580 1202Q580 1321 531 1387T397 1454Q355 1454 322 1435T265 1383T230 1304T217 1206Q217 1152 229 1107T265 1028T323 977T401 958Z"/><glyph unicode="±" horiz-adv-x="1536" d="M672 352V764H200V936H672V1352H864V936H1340V764H864V352H672ZM204 24V216H1336V24H204Z"/><glyph unicode="²" horiz-adv-x="896" d="M56 628V768L400 1108Q472 1176 512 1230T552 1352Q552 1404 506 1436T400 1468Q336 1468 276 1430T172 1348L64 1456Q124 1520 220 1570T428 1620Q568 1620 658 1540T748 1344Q748 1236 658 1134T492 976L268 788H776V628H56Z"/><glyph unicode="³" horiz-adv-x="896" d="M48 732L152 864Q216 816 284 796T424 776Q524 776 572 818T620 928Q620 1004 552 1040T384 1076H312V1204H372Q472 1204 530 1242T588 1336Q588 1400 536 1428T412 1456Q332 1456 272 1430T176 1384L88 1516Q176 1572 268 1596T448 1620Q596 1620 684 1556T772 1376Q772 1276 710 1222T548 1148Q664 1136 738 1080T812 904Q812 764 700 688T432 612Q300 612 206 646T48 732Z"/><glyph unicode="´" horiz-adv-x="922" d="M287 1073L262 1098Q297 1155 323 1200T370 1282T406 1349T438 1409Q463 1457 490 1477T553 1497Q569 1497 583 1491T608 1473T625 1448T631 1419Q631 1381 614 1359T565 1307Q544 1288 519 1268T461 1220T385 1158T287 1073Z"/><glyph unicode="µ" horiz-adv-x="1057" d="M207 -463Q189 -463 171 -456T140 -434T118 -402T109 -360Q109 -331 114 -293T125 -216T137 -138T147 -72Q152 -22 155 26T158 129V926H342V283Q342 231 355 192T391 125T442 84T502 70Q551 70 584 81T640 109T676 145T698 180V926H883V193Q883 177 887 158T902 123T928 97T967 86Q988 86 1001 99T1021 135T1031 186T1036 244H1081Q1076 106 1022 44T874 -18Q814 -18 768 17T702 127H698Q674 93 648 66T591 20T524 -9T444 -20Q418 -20 390 -13T335 7T285 42T244 92H242V6Q242 -51 252 -100T275 -192T298 -276T309 -358Q309 -384 300 -404T277 -437T245 -456T207 -463Z"/><glyph unicode="¶" horiz-adv-x="1126" d="M571 -256V700H504Q381 700 302 731T177 811T114 921T96 1044Q96 1102 113 1164T171 1279T277 1365T440 1399H1092V1354H852V-256H795V1354H629V-256H571Z"/><glyph unicode="·" horiz-adv-x="549" d="M274 422Q246 422 222 432T179 461T150 503T139 557Q139 585 149 610T178 654T221 683T274 694Q302 694 327 684T370 654T399 610T410 557Q410 528 400 504T371 461T327 433T274 422Z"/><glyph unicode="¸" horiz-adv-x="922" d="M260 -471V-418Q303 -418 347 -418T428 -408T487 -377T510 -311Q510 -284 496 -269T459 -246T409 -238T354 -236V16H406V-119Q444 -119 486 -125T563 -147T620 -194T643 -274Q643 -341 610 -380T523 -439T401 -465T260 -471Z"/><glyph unicode="¹" horiz-adv-x="768" d="M324 628V1424L144 1384V1528L392 1636H508V628H324Z"/><glyph unicode="º" horiz-adv-x="690" d="M342 850Q291 850 245 870T164 927T109 1018T88 1139Q88 1204 107 1258T160 1350T242 1410T346 1432Q404 1432 451 1410T532 1350T584 1260T602 1147Q602 1085 585 1031T534 937T452 874T342 850ZM109 633V692H580V633H109ZM346 897Q380 897 403 917T441 971T461 1050T467 1145Q467 1190 462 1232T443 1309T406 1363T346 1384Q308 1384 284 1362T247 1306T228 1229T223 1147Q223 1098 229 1053T249 973T287 918T346 897Z"/><glyph unicode="»" horiz-adv-x="1042" d="M524 31L489 57L780 455L489 858L524 885Q586 826 646 773T757 674T849 595T913 541Q923 532 930 525T941 509T948 489T950 459Q950 438 948 426T941 405T929 390T909 373Q883 350 844 315T755 236T647 140T524 31ZM154 31L119 57L410 455L119 858L154 885Q216 826 275 773T386 674T478 595T543 541Q553 532 560 525T571 509T578 489T580 459Q580 438 578 426T571 405T558 390T539 373Q513 350 474 315T384 236T276 140T154 31Z"/><glyph unicode="¼" horiz-adv-x="1530" d="M141 592V637Q151 638 168 638T204 640T239 644T262 649Q284 657 295 674T307 715V1296Q295 1293 278 1292T242 1290Q207 1290 167 1316T86 1374L100 1405Q134 1391 167 1382T246 1372Q277 1372 309 1378T370 1393T424 1412T465 1432H492Q488 1409 484 1383T477 1329T471 1274T469 1223V721Q469 699 480 681T512 655Q522 651 538 648T572 643T606 640T631 637V592H141ZM428 -51L369 -20L1135 1438L1198 1407L428 -51ZM975 0V43Q985 44 998 45T1024 47T1048 51T1065 55Q1084 61 1094 78T1104 117V260H762V317L1182 846H1257V336H1288Q1307 336 1320 336T1344 339T1361 344T1376 354Q1385 361 1391 373T1403 399T1410 428T1413 455H1448V135H1415Q1413 164 1404 196T1374 246Q1368 251 1362 254T1346 258T1324 260T1290 260H1255V125Q1255 103 1265 86T1294 61Q1303 57 1314 54T1338 49T1363 46T1384 43V0H975ZM848 336H1104V659L848 336Z"/><glyph unicode="½" horiz-adv-x="1608" d="M141 592V637Q151 638 168 638T204 640T239 644T262 649Q282 655 294 673T307 715V1296Q295 1293 278 1292T242 1290Q207 1290 167 1316T86 1374L100 1405Q134 1391 167 1382T246 1372Q277 1372 309 1378T370 1393T424 1412T465 1432H492Q488 1409 484 1383T477 1329T471 1274T469 1223V721Q469 699 480 681T512 655Q521 651 537 648T571 643T605 640T631 637V592H141ZM428 -51L369 -20L1135 1438L1198 1407L428 -51ZM893 0L907 82Q1044 177 1126 251T1253 388T1311 510T1325 631Q1325 665 1316 693T1291 743T1250 776T1196 788Q1163 788 1138 778T1095 752T1068 715T1057 674Q1058 669 1065 661T1081 641T1097 615T1104 584Q1104 573 1101 559T1087 533T1059 513T1010 504Q984 504 967 514T940 540T925 574T920 608Q920 645 938 685T994 760T1086 816T1214 838Q1280 838 1332 821T1420 773T1474 699T1493 604Q1493 536 1469 478T1392 366T1259 257T1063 141L1055 127H1374Q1399 127 1420 138T1459 169T1491 211T1516 258L1550 244L1456 0H893Z"/><glyph unicode="¾" horiz-adv-x="1630" d="M385 575Q341 575 296 587T213 623T151 682T127 764Q127 820 157 850T231 881Q265 881 289 862T313 809Q313 788 304 776T285 755T265 737T256 715Q256 681 289 654T385 627Q425 627 462 645T528 697T574 775T592 872Q592 939 565 971T492 1004Q461 1004 433 986T367 936L330 985Q386 1019 430 1047T504 1105T551 1172T567 1260Q567 1310 539 1345T455 1380Q424 1380 401 1372T362 1354T337 1332T326 1315Q327 1308 332 1301T341 1285T350 1265T354 1239Q354 1228 352 1214T341 1186T315 1164T268 1155Q244 1155 228 1164T202 1188T188 1218T184 1247Q184 1275 204 1307T261 1368T349 1414T461 1432Q541 1432 593 1412T675 1364T717 1306T729 1253Q729 1226 720 1198T688 1143T623 1094T518 1059L516 1047H537Q568 1047 606 1040T677 1012T732 955T754 860Q754 794 725 741T646 652T529 595T385 575ZM528 -51L469 -20L1235 1438L1298 1407L528 -51ZM1075 0V43Q1085 43 1098 44T1124 46T1148 50T1165 55Q1184 61 1194 78T1204 117V260H862V317L1282 846H1358V336H1380Q1402 336 1417 336T1442 338T1461 343T1477 354Q1485 361 1492 373T1503 399T1510 428T1513 455H1548V135H1516Q1514 164 1505 196T1475 246Q1468 251 1461 254T1445 258T1421 260T1386 260H1356V125Q1356 103 1366 86T1395 61Q1412 53 1437 49T1485 43V0H1075ZM948 336H1204V659L948 336Z"/><glyph unicode="¿" horiz-adv-x="885" d="M526 1159Q498 1159 474 1170T431 1199T402 1243T391 1296Q391 1324 401 1349T430 1392T473 1421T526 1432Q554 1432 579 1422T622 1393T651 1349T662 1296Q662 1268 652 1243T623 1200T579 1170T526 1159ZM481 -25Q381 -25 306 6T181 93T105 221T80 377Q80 466 112 540T199 671T330 764T494 813L504 1038H561V653Q508 645 456 627T363 576T296 489T270 358Q270 270 286 208T331 107T399 49T485 31Q501 31 518 33T551 41T579 55T600 74Q597 88 594 99T589 124T586 154T584 195Q584 222 595 242T622 275T658 294T694 301Q745 301 771 268T797 184Q797 144 775 107T712 40T613 -7T481 -25Z"/><glyph unicode="À" horiz-adv-x="1268" d="M-59 0V45Q-46 46 -28 49T8 57T44 69T74 84Q108 106 134 148T180 244Q230 376 283 521T390 817T498 1121T604 1421H690Q737 1288 783 1159T871 908T953 676T1024 472T1083 304T1126 182Q1139 150 1153 127T1202 82Q1214 74 1230 68T1263 57T1297 49T1327 45V0H727V45Q751 46 782 52T842 67T891 91T911 125Q911 136 910 148T903 172L791 496H344Q318 424 301 371T270 270Q261 236 256 207T250 156Q250 128 273 108T330 75T400 54T461 45V0H-59ZM369 563H768L567 1128L369 563ZM793 1464Q737 1513 695 1548T618 1611T559 1658T512 1698Q480 1727 464 1749T447 1810Q447 1825 453 1839T471 1864T496 1881T527 1888Q561 1888 588 1870T641 1800Q656 1771 672 1741T709 1673T755 1591T817 1489L793 1464Z"/><glyph unicode="Á" horiz-adv-x="1268" d="M-59 0V45Q-46 46 -28 49T8 57T44 69T74 84Q108 106 134 148T180 244Q230 376 283 521T390 817T498 1121T604 1421H690Q737 1288 783 1159T871 908T953 676T1024 472T1083 304T1126 182Q1139 150 1153 127T1202 82Q1214 74 1230 68T1263 57T1297 49T1327 45V0H727V45Q751 46 782 52T842 67T891 91T911 125Q911 136 910 148T903 172L791 496H344Q318 424 301 371T270 270Q261 236 256 207T250 156Q250 128 273 108T330 75T400 54T461 45V0H-59ZM369 563H768L567 1128L369 563ZM514 1464L489 1489Q524 1546 550 1591T597 1673T633 1740T665 1800Q690 1848 717 1868T780 1888Q796 1888 810 1882T835 1864T852 1839T858 1810Q858 1772 841 1750T792 1698Q771 1679 746 1659T688 1611T612 1549T514 1464Z"/><glyph unicode="Â" horiz-adv-x="1268" d="M-59 0V45Q-46 46 -28 49T8 57T44 69T74 84Q108 106 134 148T180 244Q230 376 283 521T390 817T498 1121T604 1421H690Q737 1288 783 1159T871 908T953 676T1024 472T1083 304T1126 182Q1139 150 1153 127T1202 82Q1214 74 1230 68T1263 57T1297 49T1327 45V0H727V45Q751 46 782 52T842 67T891 91T911 125Q911 136 910 148T903 172L791 496H344Q318 424 301 371T270 270Q261 236 256 207T250 156Q250 128 273 108T330 75T400 54T461 45V0H-59ZM369 563H768L567 1128L369 563ZM385 1458L358 1483Q430 1602 478 1689T561 1833Q569 1848 576 1856T591 1870T612 1876T645 1878Q665 1878 676 1877T696 1871T709 1858T723 1837Q757 1781 806 1693T927 1483L901 1458L641 1727L385 1458Z"/><glyph unicode="Ã" horiz-adv-x="1268" d="M-59 0V45Q-46 46 -28 49T8 57T44 69T74 84Q108 106 134 148T180 244Q230 376 283 521T390 817T498 1121T604 1421H690Q737 1288 783 1159T871 908T953 676T1024 472T1083 304T1126 182Q1139 150 1153 127T1202 82Q1214 74 1230 68T1263 57T1297 49T1327 45V0H727V45Q751 46 782 52T842 67T891 91T911 125Q911 136 910 148T903 172L791 496H344Q318 424 301 371T270 270Q261 236 256 207T250 156Q250 128 273 108T330 75T400 54T461 45V0H-59ZM369 563H768L567 1128L369 563ZM325 1520L290 1536Q302 1567 322 1607T372 1682T438 1742T520 1766Q573 1766 610 1751T678 1719T736 1686T798 1671Q840 1671 865 1679T906 1702T933 1740T958 1792L995 1778Q986 1745 966 1705T915 1630T846 1572T762 1548Q724 1548 696 1555T644 1572T600 1595T561 1618T520 1636T473 1643Q444 1643 425 1636T389 1613T358 1575T325 1520Z"/><glyph unicode="Ä" horiz-adv-x="1268" d="M-59 0V45Q-46 46 -28 49T8 57T44 69T74 84Q108 106 134 148T180 244Q230 376 283 521T390 817T498 1121T604 1421H690Q737 1288 783 1159T871 908T953 676T1024 472T1083 304T1126 182Q1139 150 1153 127T1202 82Q1214 74 1230 68T1263 57T1297 49T1327 45V0H727V45Q751 46 782 52T842 67T891 91T911 125Q911 136 910 148T903 172L791 496H344Q318 424 301 371T270 270Q261 236 256 207T250 156Q250 128 273 108T330 75T400 54T461 45V0H-59ZM369 563H768L567 1128L369 563ZM835 1577Q811 1577 791 1586T755 1611T730 1648T721 1694Q721 1718 730 1740T754 1778T790 1805T835 1815Q862 1815 884 1806T922 1781T947 1745T956 1702Q956 1676 947 1654T922 1614T884 1587T835 1577ZM448 1577Q424 1577 404 1586T368 1611T343 1648T334 1694Q334 1718 343 1740T367 1778T403 1805T448 1815Q475 1815 497 1806T535 1781T560 1745T569 1702Q569 1676 560 1654T535 1614T497 1587T448 1577Z"/><glyph unicode="Å" horiz-adv-x="1268" d="M643 1485Q594 1485 554 1499T486 1540T443 1603T428 1686Q428 1730 445 1767T491 1830T559 1871T643 1886Q689 1886 728 1872T796 1831T841 1768T858 1686Q858 1642 843 1605T799 1542T731 1500T643 1485ZM-59 0V45Q-46 46 -28 49T8 57T44 69T74 84Q108 106 134 148T180 244Q230 376 283 521T390 817T498 1121T604 1421H690Q737 1288 783 1159T871 908T953 676T1024 472T1083 304T1126 182Q1139 150 1153 127T1202 82Q1214 74 1230 68T1263 57T1297 49T1327 45V0H727V45Q751 46 782 52T842 67T891 91T911 125Q911 136 910 148T903 172L791 496H344Q318 424 301 371T270 270Q261 236 256 207T250 156Q250 128 273 108T330 75T400 54T461 45V0H-59ZM643 1532Q697 1532 726 1574T756 1686Q756 1752 727 1795T643 1839Q590 1839 560 1798T530 1686Q530 1617 559 1575T643 1532ZM369 563H768L567 1128L369 563Z"/><glyph unicode="Æ" horiz-adv-x="1823" d="M-59 0V45Q-46 46 -29 49T8 57T45 68T78 84Q113 106 145 148T207 244Q341 498 481 773T766 1329Q754 1333 735 1337T693 1345T649 1351T612 1354V1399H1692V1081H1638Q1630 1115 1610 1157T1562 1237T1502 1302T1440 1335Q1408 1340 1371 1341T1288 1343H1075V754H1225Q1264 754 1291 760T1336 776T1365 797T1384 817Q1394 829 1404 852T1422 903T1435 958T1442 1006H1497V434H1442Q1441 456 1435 486T1421 546T1403 599T1384 633Q1375 645 1363 656T1333 676T1289 690T1225 696H1075V246Q1075 183 1087 146T1127 90T1202 65T1319 59Q1367 59 1409 59T1486 64T1547 78T1591 106Q1613 130 1636 169T1681 251T1718 331T1741 393H1792L1767 0H659V45Q672 46 693 48T736 54T777 62T805 70Q839 84 850 110T862 170V561H444Q427 528 408 488T369 407T333 331T305 270Q290 233 278 199T266 145Q266 120 287 102T339 71T401 53T455 45V0H-59ZM479 625H862V1321H836L479 625Z"/><glyph unicode="Ç" horiz-adv-x="1200" d="M514 -479V-426Q557 -426 601 -426T682 -416T741 -385T764 -319Q764 -292 750 -277T713 -254T663 -246T608 -244V-27Q485 -15 384 40T210 187T97 404T57 682Q57 840 107 976T245 1211T455 1368T717 1425Q756 1425 798 1416T878 1392T950 1356T1004 1315L1059 1419H1133L1139 913H1090Q1064 1002 1028 1084T941 1228T821 1328T664 1366Q593 1366 527 1327T409 1207T326 999T295 698Q295 559 330 445T425 248T565 121T735 76Q820 76 883 99T993 163T1074 260T1135 383L1188 354Q1159 283 1116 214T1012 91T868 3T678 -31H659V-127Q698 -127 740 -133T817 -156T874 -203T897 -283Q897 -350 864 -389T777 -448T655 -473T514 -479Z"/><glyph unicode="È" horiz-adv-x="1223" d="M55 0V45Q67 46 88 48T132 53T175 61T205 70Q239 84 250 109T262 170V1217Q262 1251 251 1276T205 1317Q192 1323 172 1329T129 1340T87 1349T55 1354V1399H1092V1081H1038Q1030 1115 1010 1157T962 1237T902 1302T840 1335Q808 1340 771 1341T688 1343H475V754H625Q664 754 691 760T736 776T765 797T784 817Q794 829 804 852T822 903T835 958T842 1006H897V434H842Q841 456 835 486T821 546T803 599T784 633Q775 645 763 656T733 676T689 690T625 696H475V246Q475 183 483 146T514 90T581 65T694 59Q742 59 788 59T874 64T943 78T991 106Q1013 130 1036 169T1081 251T1118 331T1141 393H1192L1167 0H55ZM766 1464Q710 1513 668 1548T591 1611T532 1658T485 1698Q453 1727 437 1749T420 1810Q420 1825 426 1839T444 1864T469 1881T500 1888Q534 1888 561 1870T614 1800Q629 1771 645 1741T682 1673T728 1591T790 1489L766 1464Z"/><glyph unicode="É" horiz-adv-x="1223" d="M55 0V45Q67 46 88 48T132 53T175 61T205 70Q239 84 250 109T262 170V1217Q262 1251 251 1276T205 1317Q192 1323 172 1329T129 1340T87 1349T55 1354V1399H1092V1081H1038Q1030 1115 1010 1157T962 1237T902 1302T840 1335Q808 1340 771 1341T688 1343H475V754H625Q664 754 691 760T736 776T765 797T784 817Q794 829 804 852T822 903T835 958T842 1006H897V434H842Q841 456 835 486T821 546T803 599T784 633Q775 645 763 656T733 676T689 690T625 696H475V246Q475 183 483 146T514 90T581 65T694 59Q742 59 788 59T874 64T943 78T991 106Q1013 130 1036 169T1081 251T1118 331T1141 393H1192L1167 0H55ZM516 1464L491 1489Q526 1546 552 1591T599 1673T635 1740T667 1800Q692 1848 719 1868T782 1888Q798 1888 812 1882T837 1864T854 1839T860 1810Q860 1772 843 1750T794 1698Q773 1679 748 1659T690 1611T614 1549T516 1464Z"/><glyph unicode="Ê" horiz-adv-x="1223" d="M55 0V45Q67 46 88 48T132 53T175 61T205 70Q239 84 250 109T262 170V1217Q262 1251 251 1276T205 1317Q192 1323 172 1329T129 1340T87 1349T55 1354V1399H1092V1081H1038Q1030 1115 1010 1157T962 1237T902 1302T840 1335Q808 1340 771 1341T688 1343H475V754H625Q664 754 691 760T736 776T765 797T784 817Q794 829 804 852T822 903T835 958T842 1006H897V434H842Q841 456 835 486T821 546T803 599T784 633Q775 645 763 656T733 676T689 690T625 696H475V246Q475 183 483 146T514 90T581 65T694 59Q742 59 788 59T874 64T943 78T991 106Q1013 130 1036 169T1081 251T1118 331T1141 393H1192L1167 0H55ZM377 1472L350 1497Q422 1616 470 1703T553 1847Q561 1862 568 1870T583 1884T604 1890T637 1892Q657 1892 668 1891T688 1885T701 1872T715 1851Q749 1795 798 1707T919 1497L893 1472L633 1741L377 1472Z"/><glyph unicode="Ë" horiz-adv-x="1223" d="M55 0V45Q67 46 88 48T132 53T175 61T205 70Q239 84 250 109T262 170V1217Q262 1251 251 1276T205 1317Q192 1323 172 1329T129 1340T87 1349T55 1354V1399H1092V1081H1038Q1030 1115 1010 1157T962 1237T902 1302T840 1335Q808 1340 771 1341T688 1343H475V754H625Q664 754 691 760T736 776T765 797T784 817Q794 829 804 852T822 903T835 958T842 1006H897V434H842Q841 456 835 486T821 546T803 599T784 633Q775 645 763 656T733 676T689 690T625 696H475V246Q475 183 483 146T514 90T581 65T694 59Q742 59 788 59T874 64T943 78T991 106Q1013 130 1036 169T1081 251T1118 331T1141 393H1192L1167 0H55ZM833 1591Q809 1591 789 1600T753 1625T728 1662T719 1708Q719 1732 728 1754T752 1792T788 1819T833 1829Q860 1829 882 1820T920 1795T945 1759T954 1716Q954 1690 945 1668T920 1628T882 1601T833 1591ZM446 1591Q422 1591 402 1600T366 1625T341 1662T332 1708Q332 1732 341 1754T365 1792T401 1819T446 1829Q473 1829 495 1820T533 1795T558 1759T567 1716Q567 1690 558 1668T533 1628T495 1601T446 1591Z"/><glyph unicode="Ì" horiz-adv-x="745" d="M70 0V45Q83 46 102 47T142 52T181 58T209 66Q243 80 254 105T266 164V1219Q266 1253 255 1277T209 1317Q197 1322 179 1328T140 1340T102 1349T70 1354V1399H676V1354Q664 1353 645 1351T606 1344T568 1336T537 1327Q503 1315 491 1289T479 1229V174Q479 140 492 116T537 76Q545 72 563 67T602 58T643 50T676 45V0H70ZM544 1464Q488 1513 446 1548T369 1611T310 1658T263 1698Q231 1727 215 1749T198 1810Q198 1825 204 1839T222 1864T247 1881T278 1888Q312 1888 339 1870T392 1800Q407 1771 423 1741T460 1673T506 1591T568 1489L544 1464Z"/><glyph unicode="Í" horiz-adv-x="745" d="M70 0V45Q83 46 102 47T142 52T181 58T209 66Q243 80 254 105T266 164V1219Q266 1253 255 1277T209 1317Q197 1322 179 1328T140 1340T102 1349T70 1354V1399H676V1354Q664 1353 645 1351T606 1344T568 1336T537 1327Q503 1315 491 1289T479 1229V174Q479 140 492 116T537 76Q545 72 563 67T602 58T643 50T676 45V0H70ZM227 1464L202 1489Q237 1546 263 1591T310 1673T346 1740T378 1800Q403 1848 430 1868T493 1888Q509 1888 523 1882T548 1864T565 1839T571 1810Q571 1772 554 1750T505 1698Q484 1679 459 1659T401 1611T325 1549T227 1464Z"/><glyph unicode="Î" horiz-adv-x="745" d="M70 0V45Q83 46 102 47T142 52T181 58T209 66Q243 80 254 105T266 164V1219Q266 1253 255 1277T209 1317Q197 1322 179 1328T140 1340T102 1349T70 1354V1399H676V1354Q664 1353 645 1351T606 1344T568 1336T537 1327Q503 1315 491 1289T479 1229V174Q479 140 492 116T537 76Q545 72 563 67T602 58T643 50T676 45V0H70ZM116 1472L89 1497Q161 1616 209 1703T292 1847Q300 1862 307 1870T322 1884T343 1890T376 1892Q396 1892 407 1891T427 1885T440 1872T454 1851Q488 1795 537 1707T658 1497L632 1472L372 1741L116 1472Z"/><glyph unicode="Ï" horiz-adv-x="745" d="M559 1591Q535 1591 515 1600T478 1626T453 1663T444 1708Q444 1733 453 1755T478 1793T514 1819T559 1829Q586 1829 608 1820T646 1795T671 1759T680 1716Q680 1691 671 1669T646 1629T608 1601T559 1591ZM180 1591Q156 1591 136 1600T100 1626T75 1663T66 1708Q66 1733 75 1755T99 1793T135 1819T180 1829Q207 1829 229 1820T267 1795T292 1759T301 1716Q301 1691 292 1669T267 1629T229 1601T180 1591ZM70 0V45Q83 46 102 47T142 52T181 58T209 66Q243 80 254 105T266 164V1219Q266 1253 255 1277T209 1317Q197 1322 179 1328T140 1340T102 1349T70 1354V1399H676V1354Q664 1353 645 1351T606 1344T568 1336T537 1327Q503 1315 491 1289T479 1229V174Q479 140 492 116T537 76Q545 72 563 67T602 58T643 50T676 45V0H70Z"/><glyph unicode="Ð" horiz-adv-x="1432" d="M66 0V45Q79 45 99 46T140 51T178 58T205 66Q239 80 250 106T262 166V694H92V762H262V1217Q262 1251 251 1278T205 1321Q189 1328 171 1334T134 1344T100 1350T72 1354V1399H684Q747 1399 822 1386T975 1340T1123 1255T1251 1123T1340 937T1374 690Q1374 571 1345 474T1265 299T1145 166T994 73T825 18T647 0H66ZM672 59Q790 59 876 106T1019 237T1102 438T1130 692Q1130 832 1095 951T994 1156T838 1292T633 1341Q617 1341 596 1341T553 1340T511 1339T475 1337V762H750V694H475V217Q479 179 490 150T525 101T583 70T672 59Z"/><glyph unicode="Ñ" horiz-adv-x="1444" d="M1149 -14L330 1139V391Q330 274 346 206T391 111Q403 100 430 89T488 68T546 52T586 45V0H18V45Q30 46 56 52T111 67T163 85T195 100Q227 126 241 193T256 381V1102Q256 1124 252 1147T240 1192T221 1233T197 1264Q180 1279 154 1294T100 1323T44 1344T-2 1354V1399H395L1159 324V1016Q1159 1127 1143 1199T1096 1292Q1083 1301 1057 1312T1003 1332T947 1347T905 1354V1399H1468V1354Q1456 1353 1432 1348T1380 1336T1329 1319T1294 1303Q1276 1290 1264 1265T1245 1203T1236 1123T1233 1028V-14H1149ZM440 1534L405 1550Q417 1581 437 1621T487 1696T553 1756T635 1780Q688 1780 725 1765T793 1733T851 1700T913 1685Q955 1685 980 1693T1021 1716T1048 1754T1073 1806L1110 1792Q1101 1759 1081 1719T1030 1644T961 1586T877 1562Q839 1562 811 1569T759 1586T715 1609T676 1632T635 1650T588 1657Q559 1657 540 1650T504 1627T473 1589T440 1534Z"/><glyph unicode="Ò" horiz-adv-x="1423" d="M707 -33Q579 -33 464 16T258 160Q165 256 112 386T59 684Q59 1019 240 1219Q337 1325 456 1378T713 1432Q846 1432 964 1383T1188 1219Q1229 1174 1262 1117T1317 994T1352 856T1364 709Q1364 549 1319 411T1171 164Q1082 68 966 18T707 -33ZM713 31Q818 31 895 82T1023 224T1099 436T1124 702Q1124 785 1115 867T1085 1023T1032 1160T954 1269T848 1342T713 1368Q617 1368 541 1323T410 1190T328 978T299 694Q299 557 324 437T400 226T530 84T713 31ZM879 1464Q823 1513 781 1548T704 1611T645 1658T598 1698Q566 1727 550 1749T533 1810Q533 1825 539 1839T557 1864T582 1881T613 1888Q647 1888 674 1870T727 1800Q742 1771 758 1741T795 1673T841 1591T903 1489L879 1464Z"/><glyph unicode="Ó" horiz-adv-x="1423" d="M707 -33Q579 -33 464 16T258 160Q165 256 112 386T59 684Q59 1019 240 1219Q337 1325 456 1378T713 1432Q846 1432 964 1383T1188 1219Q1229 1174 1262 1117T1317 994T1352 856T1364 709Q1364 549 1319 411T1171 164Q1082 68 966 18T707 -33ZM713 31Q818 31 895 82T1023 224T1099 436T1124 702Q1124 785 1115 867T1085 1023T1032 1160T954 1269T848 1342T713 1368Q617 1368 541 1323T410 1190T328 978T299 694Q299 557 324 437T400 226T530 84T713 31ZM574 1464L549 1489Q584 1546 610 1591T657 1673T693 1740T725 1800Q750 1848 777 1868T840 1888Q856 1888 870 1882T895 1864T912 1839T918 1810Q918 1772 901 1750T852 1698Q831 1679 806 1659T748 1611T672 1549T574 1464Z"/><glyph unicode="Ô" horiz-adv-x="1423" d="M707 -33Q579 -33 464 16T258 160Q165 256 112 386T59 684Q59 1019 240 1219Q337 1325 456 1378T713 1432Q846 1432 964 1383T1188 1219Q1229 1174 1262 1117T1317 994T1352 856T1364 709Q1364 549 1319 411T1171 164Q1082 68 966 18T707 -33ZM713 31Q818 31 895 82T1023 224T1099 436T1124 702Q1124 785 1115 867T1085 1023T1032 1160T954 1269T848 1342T713 1368Q617 1368 541 1323T410 1190T328 978T299 694Q299 557 324 437T400 226T530 84T713 31ZM457 1472L430 1497Q502 1616 550 1703T633 1847Q641 1862 648 1870T663 1884T684 1890T717 1892Q737 1892 748 1891T768 1885T781 1872T795 1851Q829 1795 878 1707T999 1497L973 1472L713 1741L457 1472Z"/><glyph unicode="Õ" horiz-adv-x="1423" d="M707 -33Q579 -33 464 16T258 160Q165 256 112 386T59 684Q59 1019 240 1219Q337 1325 456 1378T713 1432Q846 1432 964 1383T1188 1219Q1229 1174 1262 1117T1317 994T1352 856T1364 709Q1364 549 1319 411T1171 164Q1082 68 966 18T707 -33ZM713 31Q818 31 895 82T1023 224T1099 436T1124 702Q1124 785 1115 867T1085 1023T1032 1160T954 1269T848 1342T713 1368Q617 1368 541 1323T410 1190T328 978T299 694Q299 557 324 437T400 226T530 84T713 31ZM401 1534L366 1550Q378 1581 398 1621T448 1696T514 1756T596 1780Q649 1780 686 1765T754 1733T812 1700T874 1685Q916 1685 941 1693T982 1716T1009 1754T1034 1806L1071 1792Q1062 1759 1042 1719T991 1644T922 1586T838 1562Q800 1562 772 1569T720 1586T676 1609T637 1632T596 1650T549 1657Q520 1657 501 1650T465 1627T434 1589T401 1534Z"/><glyph unicode="Ö" horiz-adv-x="1423" d="M707 -33Q579 -33 464 16T258 160Q165 256 112 386T59 684Q59 1019 240 1219Q337 1325 456 1378T713 1432Q846 1432 964 1383T1188 1219Q1229 1174 1262 1117T1317 994T1352 856T1364 709Q1364 549 1319 411T1171 164Q1082 68 966 18T707 -33ZM713 31Q818 31 895 82T1023 224T1099 436T1124 702Q1124 785 1115 867T1085 1023T1032 1160T954 1269T848 1342T713 1368Q617 1368 541 1323T410 1190T328 978T299 694Q299 557 324 437T400 226T530 84T713 31ZM903 1591Q879 1591 859 1600T823 1625T798 1662T789 1708Q789 1732 798 1754T822 1792T858 1819T903 1829Q930 1829 952 1820T990 1795T1015 1759T1024 1716Q1024 1690 1015 1668T990 1628T952 1601T903 1591ZM516 1591Q492 1591 472 1600T436 1625T411 1662T402 1708Q402 1732 411 1754T435 1792T471 1819T516 1829Q543 1829 565 1820T603 1795T628 1759T637 1716Q637 1690 628 1668T603 1628T565 1601T516 1591Z"/><glyph unicode="×" horiz-adv-x="1188" d="M186 61L119 129L526 535L119 942L188 1012L596 604L1001 1012L1069 944L662 539L1069 131L999 61L592 469L186 61Z"/><glyph unicode="Ø" horiz-adv-x="1423" d="M133 -80L86 -41L250 166Q162 262 111 390T59 684Q59 1019 240 1219Q337 1325 456 1378T713 1432Q827 1432 931 1396T1130 1276Q1158 1311 1187 1347T1240 1413Q1268 1448 1294 1481L1341 1440Q1294 1382 1258 1336Q1243 1316 1228 1298T1202 1265T1183 1241T1176 1231Q1221 1186 1256 1128T1315 1002T1351 861T1364 709Q1364 549 1319 411T1171 164Q1082 68 966 18T707 -33Q591 -33 487 7T295 123Q295 123 288 115T270 92T244 60T214 22Q178 -23 133 -80ZM360 305L698 731Q761 811 822 887T930 1023T1007 1119T1036 1155Q1012 1203 980 1242T908 1309T819 1352T713 1368Q616 1368 539 1323T407 1190T324 978T295 694Q295 585 310 486T360 305ZM713 31Q819 31 897 82T1026 224T1103 436T1128 702Q1128 806 1114 905T1065 1092L389 242Q442 145 521 88T713 31Z"/><glyph unicode="Ù" horiz-adv-x="1454" d="M735 -33Q612 -33 519 0T363 88T270 216T238 369V1217Q238 1251 225 1275T180 1319Q167 1326 149 1332T111 1342T75 1350T45 1354V1399H643V1354Q631 1353 613 1351T576 1344T540 1336T510 1327Q475 1315 464 1288T453 1227V418Q453 381 458 341T476 262T512 188T572 126T661 84T784 68Q856 68 911 85T1005 130T1071 194T1114 270T1136 349T1143 422V1020Q1143 1132 1127 1202T1079 1294Q1063 1306 1038 1317T985 1336T932 1348T891 1354V1399H1458V1354Q1445 1353 1421 1349T1371 1339T1320 1324T1280 1305Q1262 1292 1250 1266T1231 1203T1222 1124T1219 1032V406Q1219 322 1196 258T1135 144T1046 62T943 7T835 -23T735 -33ZM909 1464Q853 1513 811 1548T734 1611T675 1658T628 1698Q596 1727 580 1749T563 1810Q563 1825 569 1839T587 1864T612 1881T643 1888Q677 1888 704 1870T757 1800Q772 1771 788 1741T825 1673T871 1591T933 1489L909 1464Z"/><glyph unicode="Ú" horiz-adv-x="1454" d="M735 -33Q612 -33 519 0T363 88T270 216T238 369V1217Q238 1251 225 1275T180 1319Q167 1326 149 1332T111 1342T75 1350T45 1354V1399H643V1354Q631 1353 613 1351T576 1344T540 1336T510 1327Q475 1315 464 1288T453 1227V418Q453 381 458 341T476 262T512 188T572 126T661 84T784 68Q856 68 911 85T1005 130T1071 194T1114 270T1136 349T1143 422V1020Q1143 1132 1127 1202T1079 1294Q1063 1306 1038 1317T985 1336T932 1348T891 1354V1399H1458V1354Q1445 1353 1421 1349T1371 1339T1320 1324T1280 1305Q1262 1292 1250 1266T1231 1203T1222 1124T1219 1032V406Q1219 322 1196 258T1135 144T1046 62T943 7T835 -23T735 -33ZM631 1464L606 1489Q641 1546 667 1591T714 1673T750 1740T782 1800Q807 1848 834 1868T897 1888Q913 1888 927 1882T952 1864T969 1839T975 1810Q975 1772 958 1750T909 1698Q888 1679 863 1659T805 1611T729 1549T631 1464Z"/><glyph unicode="Û" horiz-adv-x="1454" d="M735 -33Q612 -33 519 0T363 88T270 216T238 369V1217Q238 1251 225 1275T180 1319Q167 1326 149 1332T111 1342T75 1350T45 1354V1399H643V1354Q631 1353 613 1351T576 1344T540 1336T510 1327Q475 1315 464 1288T453 1227V418Q453 381 458 341T476 262T512 188T572 126T661 84T784 68Q856 68 911 85T1005 130T1071 194T1114 270T1136 349T1143 422V1020Q1143 1132 1127 1202T1079 1294Q1063 1306 1038 1317T985 1336T932 1348T891 1354V1399H1458V1354Q1445 1353 1421 1349T1371 1339T1320 1324T1280 1305Q1262 1292 1250 1266T1231 1203T1222 1124T1219 1032V406Q1219 322 1196 258T1135 144T1046 62T943 7T835 -23T735 -33ZM520 1472L493 1497Q565 1616 613 1703T696 1847Q704 1862 711 1870T726 1884T747 1890T780 1892Q800 1892 811 1891T831 1885T844 1872T858 1851Q892 1795 941 1707T1062 1497L1036 1472L776 1741L520 1472Z"/><glyph unicode="Ü" horiz-adv-x="1454" d="M735 -33Q612 -33 519 0T363 88T270 216T238 369V1217Q238 1251 225 1275T180 1319Q167 1326 149 1332T111 1342T75 1350T45 1354V1399H643V1354Q631 1353 613 1351T576 1344T540 1336T510 1327Q475 1315 464 1288T453 1227V418Q453 381 458 341T476 262T512 188T572 126T661 84T784 68Q856 68 911 85T1005 130T1071 194T1114 270T1136 349T1143 422V1020Q1143 1132 1127 1202T1079 1294Q1063 1306 1038 1317T985 1336T932 1348T891 1354V1399H1458V1354Q1445 1353 1421 1349T1371 1339T1320 1324T1280 1305Q1262 1292 1250 1266T1231 1203T1222 1124T1219 1032V406Q1219 322 1196 258T1135 144T1046 62T943 7T835 -23T735 -33ZM952 1591Q928 1591 908 1600T872 1625T847 1662T838 1708Q838 1732 847 1754T871 1792T907 1819T952 1829Q979 1829 1001 1820T1039 1795T1064 1759T1073 1716Q1073 1690 1064 1668T1039 1628T1001 1601T952 1591ZM565 1591Q541 1591 521 1600T485 1625T460 1662T451 1708Q451 1732 460 1754T484 1792T520 1819T565 1829Q592 1829 614 1820T652 1795T677 1759T686 1716Q686 1690 677 1668T652 1628T614 1601T565 1591Z"/><glyph unicode="Ý" horiz-adv-x="1147" d="M240 0V45Q252 46 274 48T320 54T365 62T395 70Q429 84 441 111T453 172V528Q453 559 439 597T403 682Q340 821 281 944T162 1180Q137 1226 109 1261T49 1319Q37 1326 21 1332T-11 1343T-44 1350T-74 1354V1399H541V1354Q516 1352 484 1348T423 1335T374 1313T354 1282Q354 1268 385 1199T471 1018Q505 947 547 864T637 688Q690 781 736 865T819 1018Q870 1115 900 1178T930 1255Q930 1280 911 1298T862 1327T798 1345T731 1354V1399H1227V1354Q1218 1353 1203 1349T1171 1338T1139 1325T1116 1313Q1098 1301 1085 1291T1060 1269T1038 1243T1012 1208Q973 1155 937 1097T864 975T792 839T717 686Q705 662 695 632T678 571T668 510T664 455V182Q664 147 676 121T721 80Q729 76 750 71T795 60T842 50T877 45V0H240ZM400 1462L375 1487Q410 1544 436 1589T483 1671T519 1738T551 1798Q576 1846 603 1866T666 1886Q682 1886 696 1880T721 1862T738 1837T744 1808Q744 1770 727 1748T678 1696Q657 1677 632 1657T574 1609T498 1547T400 1462Z"/><glyph unicode="Þ" horiz-adv-x="1145" d="M68 0V45Q81 46 100 48T140 53T178 60T205 68Q239 82 250 109T262 170V1221Q262 1255 251 1284T205 1325Q188 1331 168 1336T129 1344T91 1350T61 1354V1399H670V1354Q657 1353 637 1351T596 1346T557 1339T530 1331Q496 1317 486 1290T475 1229V1098H705Q787 1098 859 1075T984 1009T1069 902T1100 760Q1100 655 1060 576T953 444T801 363T627 336H475V170Q475 136 486 109T530 68Q539 64 557 60T597 53T641 48T682 45V0H68ZM475 397H573Q636 397 681 413T759 457T810 518T840 588T854 656T858 713Q858 770 847 828T807 934T729 1010T604 1040H475V397Z"/><glyph unicode="ß" horiz-adv-x="1079" d="M745 -29Q676 -29 626 -12T542 34T493 102T477 182Q477 238 509 270T590 303Q609 303 626 296T655 277T675 248T682 213Q682 195 676 182T664 158T651 135T645 109Q645 94 650 78T669 49T704 27T758 18Q826 18 865 67T905 195Q905 228 899 256T874 316T818 383T723 469Q687 499 655 530T599 596T561 667T547 745Q547 780 557 805T583 851T618 892T657 936Q674 957 689 982T715 1039T734 1114T741 1210Q741 1279 728 1330T691 1416T636 1466T567 1483Q522 1483 487 1458T426 1380T387 1245T369 1047Q369 1024 368 996T367 942V0H43V41Q68 43 90 46T131 55Q157 65 169 89T182 147V840H27V922H182V985Q182 1113 212 1217T311 1403Q370 1471 444 1500T590 1530Q648 1530 702 1512T799 1459T867 1375T893 1264Q893 1195 878 1148T839 1066T790 1009T740 964T702 919T686 864Q686 843 690 822T710 772T761 706T858 612Q907 568 942 534T999 463T1031 385T1042 285Q1042 223 1019 167T955 67T861 -3T745 -29Z"/><glyph unicode="à" horiz-adv-x="901" d="M272 -25Q224 -25 185 -10T117 34T73 103T57 193Q57 256 72 299T113 373T171 422T238 457Q278 474 321 489T405 519T483 550T551 586V700Q551 714 548 748T530 817T484 880T397 907Q373 907 356 900T327 881T307 858T293 838Q293 815 302 783T311 717Q311 697 301 681T274 652T235 634T188 627Q166 627 150 635T123 659T107 693T102 735Q102 781 129 820T201 889T300 935T410 952Q480 952 539 943T643 903T712 812T737 649Q737 581 736 511T732 378T729 265T727 190Q727 176 733 159T750 125T777 97T813 86Q834 86 846 99T866 135T876 186T881 244H926Q922 172 906 122T864 41T803 -5T723 -20Q657 -20 616 13T553 117H547Q496 52 426 14T272 -25ZM375 70Q410 70 435 76T479 95T513 126T545 168L553 526Q487 502 432 478T338 420T276 339T254 223Q254 149 286 110T375 70ZM794 1073Q738 1122 696 1157T619 1220T560 1267T513 1307Q481 1336 465 1358T448 1419Q448 1434 454 1448T472 1473T497 1490T528 1497Q562 1497 589 1479T642 1409Q657 1380 673 1350T710 1282T756 1200T818 1098L794 1073Z"/><glyph unicode="á" horiz-adv-x="901" d="M272 -25Q224 -25 185 -10T117 34T73 103T57 193Q57 256 72 299T113 373T171 422T238 457Q278 474 321 489T405 519T483 550T551 586V700Q551 714 548 748T530 817T484 880T397 907Q373 907 356 900T327 881T307 858T293 838Q293 815 302 783T311 717Q311 697 301 681T274 652T235 634T188 627Q166 627 150 635T123 659T107 693T102 735Q102 781 129 820T201 889T300 935T410 952Q480 952 539 943T643 903T712 812T737 649Q737 581 736 511T732 378T729 265T727 190Q727 176 733 159T750 125T777 97T813 86Q834 86 846 99T866 135T876 186T881 244H926Q922 172 906 122T864 41T803 -5T723 -20Q657 -20 616 13T553 117H547Q496 52 426 14T272 -25ZM375 70Q410 70 435 76T479 95T513 126T545 168L553 526Q487 502 432 478T338 420T276 339T254 223Q254 149 286 110T375 70ZM328 1073L303 1098Q338 1155 364 1200T411 1282T447 1349T479 1409Q504 1457 531 1477T594 1497Q610 1497 624 1491T649 1473T666 1448T672 1419Q672 1381 655 1359T606 1307Q585 1288 560 1268T502 1220T426 1158T328 1073Z"/><glyph unicode="â" horiz-adv-x="901" d="M272 -25Q224 -25 185 -10T117 34T73 103T57 193Q57 256 72 299T113 373T171 422T238 457Q278 474 321 489T405 519T483 550T551 586V700Q551 714 548 748T530 817T484 880T397 907Q373 907 356 900T327 881T307 858T293 838Q293 815 302 783T311 717Q311 697 301 681T274 652T235 634T188 627Q166 627 150 635T123 659T107 693T102 735Q102 781 129 820T201 889T300 935T410 952Q480 952 539 943T643 903T712 812T737 649Q737 581 736 511T732 378T729 265T727 190Q727 176 733 159T750 125T777 97T813 86Q834 86 846 99T866 135T876 186T881 244H926Q922 172 906 122T864 41T803 -5T723 -20Q657 -20 616 13T553 117H547Q496 52 426 14T272 -25ZM375 70Q410 70 435 76T479 95T513 126T545 168L553 526Q487 502 432 478T338 420T276 339T254 223Q254 149 286 110T375 70ZM421 1081L394 1106Q466 1225 514 1312T597 1456Q605 1471 612 1479T627 1493T648 1499T681 1501Q701 1501 712 1500T732 1494T745 1481T759 1460Q793 1404 842 1316T963 1106L937 1081L677 1350L421 1081Z"/><glyph unicode="ã" horiz-adv-x="901" d="M272 -25Q224 -25 185 -10T117 34T73 103T57 193Q57 256 72 299T113 373T171 422T238 457Q278 474 321 489T405 519T483 550T551 586V700Q551 714 548 748T530 817T484 880T397 907Q373 907 356 900T327 881T307 858T293 838Q293 815 302 783T311 717Q311 697 301 681T274 652T235 634T188 627Q166 627 150 635T123 659T107 693T102 735Q102 781 129 820T201 889T300 935T410 952Q480 952 539 943T643 903T712 812T737 649Q737 581 736 511T732 378T729 265T727 190Q727 176 733 159T750 125T777 97T813 86Q834 86 846 99T866 135T876 186T881 244H926Q922 172 906 122T864 41T803 -5T723 -20Q657 -20 616 13T553 117H547Q496 52 426 14T272 -25ZM375 70Q410 70 435 76T479 95T513 126T545 168L553 526Q487 502 432 478T338 420T276 339T254 223Q254 149 286 110T375 70ZM380 1143L345 1159Q357 1190 377 1230T427 1305T493 1365T575 1389Q628 1389 665 1374T733 1342T791 1309T853 1294Q895 1294 920 1302T961 1325T988 1363T1013 1415L1050 1401Q1041 1368 1021 1328T970 1253T901 1195T817 1171Q779 1171 751 1178T699 1195T655 1218T616 1241T575 1259T528 1266Q499 1266 480 1259T444 1236T413 1198T380 1143Z"/><glyph unicode="ä" horiz-adv-x="901" d="M272 -25Q224 -25 185 -10T117 34T73 103T57 193Q57 256 72 299T113 373T171 422T238 457Q278 474 321 489T405 519T483 550T551 586V700Q551 714 548 748T530 817T484 880T397 907Q373 907 356 900T327 881T307 858T293 838Q293 815 302 783T311 717Q311 697 301 681T274 652T235 634T188 627Q166 627 150 635T123 659T107 693T102 735Q102 781 129 820T201 889T300 935T410 952Q480 952 539 943T643 903T712 812T737 649Q737 581 736 511T732 378T729 265T727 190Q727 176 733 159T750 125T777 97T813 86Q834 86 846 99T866 135T876 186T881 244H926Q922 172 906 122T864 41T803 -5T723 -20Q657 -20 616 13T553 117H547Q496 52 426 14T272 -25ZM375 70Q410 70 435 76T479 95T513 126T545 168L553 526Q487 502 432 478T338 420T276 339T254 223Q254 149 286 110T375 70ZM877 1200Q853 1200 833 1209T797 1234T772 1271T763 1317Q763 1341 772 1363T796 1401T832 1428T877 1438Q904 1438 926 1429T964 1404T989 1368T998 1325Q998 1299 989 1277T964 1237T926 1210T877 1200ZM490 1200Q466 1200 446 1209T410 1234T385 1271T376 1317Q376 1341 385 1363T409 1401T445 1428T490 1438Q517 1438 539 1429T577 1404T602 1368T611 1325Q611 1299 602 1277T577 1237T539 1210T490 1200Z"/><glyph unicode="å" horiz-adv-x="901" d="M272 -25Q224 -25 185 -10T117 34T73 103T57 193Q57 256 72 299T113 373T171 422T238 457Q278 474 321 489T405 519T483 550T551 586V700Q551 714 548 748T530 817T484 880T397 907Q373 907 356 900T327 881T307 858T293 838Q293 815 302 783T311 717Q311 697 301 681T274 652T235 634T188 627Q166 627 150 635T123 659T107 693T102 735Q102 781 129 820T201 889T300 935T410 952Q480 952 539 943T643 903T712 812T737 649Q737 581 736 511T732 378T729 265T727 190Q727 176 733 159T750 125T777 97T813 86Q834 86 846 99T866 135T876 186T881 244H926Q922 172 906 122T864 41T803 -5T723 -20Q657 -20 616 13T553 117H547Q496 52 426 14T272 -25ZM375 70Q410 70 435 76T479 95T513 126T545 168L553 526Q487 502 432 478T338 420T276 339T254 223Q254 149 286 110T375 70ZM683 1087Q634 1087 594 1101T526 1142T483 1205T468 1288Q468 1333 485 1370T531 1433T599 1474T683 1489Q729 1489 768 1475T836 1434T881 1371T898 1288Q898 1244 883 1207T839 1144T771 1102T683 1087ZM683 1135Q737 1135 766 1177T795 1288Q795 1321 788 1349T766 1398T731 1430T683 1442Q630 1442 600 1401T570 1288Q570 1220 599 1178T683 1135Z"/><glyph unicode="æ" horiz-adv-x="1343" d="M272 -25Q224 -25 185 -10T117 34T73 103T57 193Q57 256 72 299T113 373T171 422T238 457Q278 474 321 489T405 519T483 550T551 586V700Q551 714 548 748T530 817T484 880T397 907Q373 907 356 900T327 881T307 858T293 838Q293 815 302 783T311 717Q311 697 301 681T274 652T235 634T188 627Q166 627 150 635T123 659T107 693T102 735Q102 781 130 820T201 889T299 935T406 952Q450 952 492 947T572 929T640 896T692 844Q715 866 743 885T803 920T873 943T952 952Q1049 952 1116 920T1226 834T1288 709T1307 559V541H754V518Q754 419 769 336T816 193T900 100T1024 66Q1076 66 1113 77T1180 110T1233 167T1284 248L1321 223Q1296 169 1261 124T1180 45T1083 -6T971 -25Q846 -25 759 27T623 168H616Q581 115 539 79T452 19T360 -14T272 -25ZM754 586L1110 590Q1110 645 1104 701T1079 802T1030 876T950 905Q909 905 874 882T812 818T771 717T754 586ZM375 70Q410 70 437 78T485 100T523 133T557 176L553 526Q487 502 432 478T338 420T276 339T254 223Q254 149 286 110T375 70Z"/><glyph unicode="ç" horiz-adv-x="795" d="M281 -471V-418Q324 -418 368 -418T448 -408T507 -377T530 -311Q530 -284 516 -269T480 -246T430 -238T375 -236V-18Q293 -5 232 37T129 142T68 289T47 467Q47 561 76 649T160 804T293 911T469 952Q541 952 595 933T686 881T741 805T760 715Q760 664 733 632T655 600Q641 600 622 605T586 621T557 652T545 702Q545 734 548 752T556 783T565 805T569 829Q561 874 538 888T467 903Q425 903 386 882T317 811T269 681T250 485Q250 392 266 315T315 183T393 97T500 66Q596 66 657 112T764 248L805 219Q779 168 742 124T660 46T563 -6T455 -25H426V-119Q464 -119 506 -125T583 -147T641 -194T664 -274Q664 -341 631 -380T544 -439T421 -465T281 -471Z"/><glyph unicode="è" horiz-adv-x="838" d="M465 -25Q358 -25 280 14T149 121T72 279T47 471Q47 563 74 650T152 804T278 911T446 952Q543 952 610 920T720 834T782 709T801 559V541H248V518Q248 419 263 336T311 193T395 100T518 66Q570 66 607 77T674 110T727 167T778 248L815 223Q791 169 756 124T675 45T577 -6T465 -25ZM248 586L604 590Q604 645 598 701T573 802T524 876T444 905Q403 905 368 882T306 818T265 717T248 586ZM816 1073Q760 1122 718 1157T641 1220T582 1267T535 1307Q503 1336 487 1358T470 1419Q470 1434 476 1448T494 1473T519 1490T550 1497Q584 1497 611 1479T664 1409Q679 1380 695 1350T732 1282T778 1200T840 1098L816 1073Z"/><glyph unicode="é" horiz-adv-x="838" d="M465 -25Q358 -25 280 14T149 121T72 279T47 471Q47 563 74 650T152 804T278 911T446 952Q543 952 610 920T720 834T782 709T801 559V541H248V518Q248 419 263 336T311 193T395 100T518 66Q570 66 607 77T674 110T727 167T778 248L815 223Q791 169 756 124T675 45T577 -6T465 -25ZM248 586L604 590Q604 645 598 701T573 802T524 876T444 905Q403 905 368 882T306 818T265 717T248 586ZM369 1073L344 1098Q379 1155 405 1200T452 1282T488 1349T520 1409Q545 1457 572 1477T635 1497Q651 1497 665 1491T690 1473T707 1448T713 1419Q713 1381 696 1359T647 1307Q626 1288 601 1268T543 1220T467 1158T369 1073Z"/><glyph unicode="ê" horiz-adv-x="838" d="M465 -25Q358 -25 280 14T149 121T72 279T47 471Q47 563 74 650T152 804T278 911T446 952Q543 952 610 920T720 834T782 709T801 559V541H248V518Q248 419 263 336T311 193T395 100T518 66Q570 66 607 77T674 110T727 167T778 248L815 223Q791 169 756 124T675 45T577 -6T465 -25ZM248 586L604 590Q604 645 598 701T573 802T524 876T444 905Q403 905 368 882T306 818T265 717T248 586ZM442 1081L415 1106Q487 1225 535 1312T618 1456Q626 1471 633 1479T648 1493T669 1499T702 1501Q722 1501 733 1500T753 1494T766 1481T780 1460Q814 1404 863 1316T984 1106L958 1081L698 1350L442 1081Z"/><glyph unicode="ë" horiz-adv-x="838" d="M465 -25Q358 -25 280 14T149 121T72 279T47 471Q47 563 74 650T152 804T278 911T446 952Q543 952 610 920T720 834T782 709T801 559V541H248V518Q248 419 263 336T311 193T395 100T518 66Q570 66 607 77T674 110T727 167T778 248L815 223Q791 169 756 124T675 45T577 -6T465 -25ZM248 586L604 590Q604 645 598 701T573 802T524 876T444 905Q403 905 368 882T306 818T265 717T248 586ZM898 1200Q874 1200 854 1209T818 1234T793 1271T784 1317Q784 1341 793 1363T817 1401T853 1428T898 1438Q925 1438 947 1429T985 1404T1010 1368T1019 1325Q1019 1299 1010 1277T985 1237T947 1210T898 1200ZM511 1200Q487 1200 467 1209T431 1234T406 1271T397 1317Q397 1341 406 1363T430 1401T466 1428T511 1438Q538 1438 560 1429T598 1404T623 1368T632 1325Q632 1299 623 1277T598 1237T560 1210T511 1200Z"/><glyph unicode="ì" horiz-adv-x="522" d="M47 0V41Q72 43 92 46T131 55Q157 65 169 90T182 147V735Q179 767 167 794T131 838Q123 844 109 850T79 862T47 872T18 877V915L354 938L367 924V160Q367 128 380 103T418 66Q439 55 462 49T502 41V0H47ZM345 1073Q289 1122 247 1157T170 1220T111 1267T64 1307Q32 1336 16 1358T-1 1419Q-1 1434 5 1448T23 1473T48 1490T79 1497Q113 1497 140 1479T193 1409Q208 1380 224 1350T261 1282T307 1200T369 1098L345 1073Z"/><glyph unicode="í" horiz-adv-x="522" d="M47 0V41Q72 43 92 46T131 55Q157 65 169 90T182 147V735Q179 767 167 794T131 838Q123 844 109 850T79 862T47 872T18 877V915L354 938L367 924V160Q367 128 380 103T418 66Q439 55 462 49T502 41V0H47ZM112 1073L87 1098Q122 1155 148 1200T195 1282T231 1349T263 1409Q288 1457 315 1477T378 1497Q394 1497 408 1491T433 1473T450 1448T456 1419Q456 1381 439 1359T390 1307Q369 1288 344 1268T286 1220T210 1158T112 1073Z"/><glyph unicode="î" horiz-adv-x="522" d="M8 1081L-23 1106Q15 1167 42 1218T91 1313T130 1391T164 1456Q173 1471 178 1480T191 1493T211 1499T246 1501Q268 1501 279 1500T298 1494T309 1481T322 1460Q339 1431 356 1396T395 1318T444 1222T510 1106L479 1081L242 1360L8 1081ZM47 0V41Q72 43 92 46T131 55Q157 65 169 90T182 147V735Q179 767 167 794T131 838Q123 844 109 850T79 862T47 872T18 877V915L354 938L367 924V160Q367 128 380 103T418 66Q439 55 462 49T502 41V0H47Z"/><glyph unicode="ï" horiz-adv-x="522" d="M426 1206Q401 1206 380 1215T343 1239T318 1276T309 1321Q309 1345 318 1367T342 1405T379 1432T426 1442Q452 1442 474 1433T511 1408T536 1372T545 1329Q545 1304 536 1282T511 1243T473 1216T426 1206ZM68 1204Q44 1204 23 1213T-13 1238T-38 1275T-47 1321Q-47 1345 -38 1367T-14 1405T23 1432T68 1442Q95 1442 117 1433T154 1408T179 1372T188 1329Q188 1304 179 1282T154 1242T116 1214T68 1204ZM47 0V41Q72 43 92 46T131 55Q157 65 169 90T182 147V735Q179 767 167 794T131 838Q123 844 109 850T79 862T47 872T18 877V915L354 938L367 924V160Q367 128 380 103T418 66Q439 55 462 49T502 41V0H47Z"/><glyph unicode="ð" horiz-adv-x="971" d="M471 -29Q389 -29 313 4T177 100T83 257T47 471Q47 577 78 666T166 819T300 918T471 954Q515 954 553 942T621 911T674 868T709 819L713 821Q707 883 693 949T658 1078T609 1198T547 1300L338 1157L307 1206L516 1343Q485 1385 448 1424T365 1495L391 1534Q417 1520 446 1502T503 1464T553 1425T590 1391L770 1513L801 1464L633 1354Q700 1282 753 1201T843 1025T900 824T920 594Q920 459 891 345T804 147T663 18T471 -29ZM483 18Q544 18 588 58T660 165T702 317T715 494Q715 576 701 650T659 781T588 871T487 905Q419 905 374 868T302 770T264 634T252 481Q252 376 265 291T307 145T379 51T483 18Z"/><glyph unicode="ñ" horiz-adv-x="1073" d="M45 0V41Q70 43 90 46T129 55Q155 65 167 89T180 147V735Q177 767 165 797T129 844Q114 856 87 865T35 877V915L350 938L365 924V784H367Q394 812 421 842T483 896T562 936T666 952Q730 952 777 929T856 864T903 762T918 629V156Q918 122 929 99T965 63Q985 54 1005 49T1051 41V0H596V41Q619 43 642 46T682 55Q708 65 719 89T731 147V633Q731 686 719 726T687 794T640 836T584 850Q536 850 498 836T433 802T389 758T365 717V158Q365 90 412 66Q430 55 453 49T498 41V0H45ZM243 1143L208 1159Q220 1190 240 1230T290 1305T356 1365T438 1389Q491 1389 528 1374T596 1342T654 1309T716 1294Q758 1294 783 1302T824 1325T851 1363T876 1415L913 1401Q904 1368 884 1328T833 1253T764 1195T680 1171Q642 1171 614 1178T562 1195T518 1218T479 1241T438 1259T391 1266Q362 1266 343 1259T307 1236T276 1198T243 1143Z"/><glyph unicode="ò" horiz-adv-x="961" d="M471 -29Q387 -29 310 5T175 102T82 255T47 459Q47 568 78 658T167 814T306 916T485 952Q584 952 663 916T797 815T883 663T913 473Q913 371 884 280T799 120T661 11T471 -29ZM483 18Q542 18 585 54T655 152T696 296T709 471Q709 552 698 629T661 768T591 867T483 905Q436 905 401 887T341 837T298 763T271 673T256 575T252 475Q252 383 264 301T304 155T376 55T483 18ZM863 1073Q807 1122 765 1157T688 1220T629 1267T582 1307Q550 1336 534 1358T517 1419Q517 1434 523 1448T541 1473T566 1490T597 1497Q631 1497 658 1479T711 1409Q726 1380 742 1350T779 1282T825 1200T887 1098L863 1073Z"/><glyph unicode="ó" horiz-adv-x="961" d="M471 -29Q387 -29 310 5T175 102T82 255T47 459Q47 568 78 658T167 814T306 916T485 952Q584 952 663 916T797 815T883 663T913 473Q913 371 884 280T799 120T661 11T471 -29ZM483 18Q542 18 585 54T655 152T696 296T709 471Q709 552 698 629T661 768T591 867T483 905Q436 905 401 887T341 837T298 763T271 673T256 575T252 475Q252 383 264 301T304 155T376 55T483 18ZM353 1073L328 1098Q363 1155 389 1200T436 1282T472 1349T504 1409Q529 1457 556 1477T619 1497Q635 1497 649 1491T674 1473T691 1448T697 1419Q697 1381 680 1359T631 1307Q610 1288 585 1268T527 1220T451 1158T353 1073Z"/><glyph unicode="ô" horiz-adv-x="961" d="M471 -29Q387 -29 310 5T175 102T82 255T47 459Q47 568 78 658T167 814T306 916T485 952Q584 952 663 916T797 815T883 663T913 473Q913 371 884 280T799 120T661 11T471 -29ZM483 18Q542 18 585 54T655 152T696 296T709 471Q709 552 698 629T661 768T591 867T483 905Q436 905 401 887T341 837T298 763T271 673T256 575T252 475Q252 383 264 301T304 155T376 55T483 18ZM228 1081L201 1106Q273 1225 321 1312T404 1456Q412 1471 419 1479T434 1493T455 1499T488 1501Q508 1501 519 1500T539 1494T552 1481T566 1460Q600 1404 649 1316T770 1106L744 1081L484 1350L228 1081Z"/><glyph unicode="õ" horiz-adv-x="961" d="M471 -29Q387 -29 310 5T175 102T82 255T47 459Q47 568 78 658T167 814T306 916T485 952Q584 952 663 916T797 815T883 663T913 473Q913 371 884 280T799 120T661 11T471 -29ZM483 18Q542 18 585 54T655 152T696 296T709 471Q709 552 698 629T661 768T591 867T483 905Q436 905 401 887T341 837T298 763T271 673T256 575T252 475Q252 383 264 301T304 155T376 55T483 18ZM170 1143L135 1159Q147 1190 167 1230T217 1305T283 1365T365 1389Q418 1389 455 1374T523 1342T581 1309T643 1294Q685 1294 710 1302T751 1325T778 1363T803 1415L840 1401Q831 1368 811 1328T760 1253T691 1195T607 1171Q569 1171 541 1178T489 1195T445 1218T406 1241T365 1259T318 1266Q289 1266 270 1259T234 1236T203 1198T170 1143Z"/><glyph unicode="ö" horiz-adv-x="961" d="M471 -29Q387 -29 310 5T175 102T82 255T47 459Q47 568 78 658T167 814T306 916T485 952Q584 952 663 916T797 815T883 663T913 473Q913 371 884 280T799 120T661 11T471 -29ZM483 18Q542 18 585 54T655 152T696 296T709 471Q709 552 698 629T661 768T591 867T483 905Q436 905 401 887T341 837T298 763T271 673T256 575T252 475Q252 383 264 301T304 155T376 55T483 18ZM676 1200Q652 1200 632 1209T596 1234T571 1271T562 1317Q562 1341 571 1363T595 1401T631 1428T676 1438Q703 1438 725 1429T763 1404T788 1368T797 1325Q797 1299 788 1277T763 1237T725 1210T676 1200ZM289 1200Q265 1200 245 1209T209 1234T184 1271T175 1317Q175 1341 184 1363T208 1401T244 1428T289 1438Q316 1438 338 1429T376 1404T401 1368T410 1325Q410 1299 401 1277T376 1237T338 1210T289 1200Z"/><glyph unicode="÷" horiz-adv-x="1188" d="M594 778Q567 778 543 788T502 817T474 858T463 909Q463 936 473 959T501 1000T543 1028T594 1038Q621 1038 645 1028T686 1001T714 960T725 909Q725 882 715 859T687 817T645 789T594 778ZM100 485V580H1087V485H100ZM594 25Q567 25 543 35T502 62T474 103T463 154Q463 181 473 204T501 246T543 274T594 285Q621 285 645 275T686 246T714 205T725 154Q725 127 715 104T687 63T645 35T594 25Z"/><glyph unicode="ø" horiz-adv-x="961" d="M104 -70L61 -37L170 106Q113 172 80 259T47 459Q47 568 78 658T167 814T306 916T485 952Q561 952 625 931T741 868L854 1016L897 981Q865 939 840 906Q818 877 801 854T782 829Q845 764 879 673T913 473Q913 371 884 280T799 120T661 11T471 -29Q399 -29 332 -4T209 70L104 -70ZM272 244L664 764Q639 827 595 866T483 905Q436 905 401 887T339 837T296 763T269 673T254 575T250 475Q250 413 255 355T272 244ZM483 18Q543 18 586 54T657 152T698 296T711 471Q711 531 705 589T686 700L293 180Q321 106 366 62T483 18Z"/><glyph unicode="ù" horiz-adv-x="1040" d="M395 -25Q330 -25 285 0T211 70T169 176T156 309V739Q153 771 142 798T109 842Q92 854 65 863T12 874V913L328 938L342 924V281Q342 228 352 188T382 122T426 83T481 70Q529 70 565 84T627 117T669 159T694 197V745Q691 777 680 804T647 848Q632 860 598 866T528 874V913L864 938L879 924V182Q879 150 891 126T926 84Q943 72 968 66T1018 57V18L709 -4L696 10V135H690Q664 106 637 77T576 26T498 -11T395 -25ZM880 1073Q824 1122 782 1157T705 1220T646 1267T599 1307Q567 1336 551 1358T534 1419Q534 1434 540 1448T558 1473T583 1490T614 1497Q648 1497 675 1479T728 1409Q743 1380 759 1350T796 1282T842 1200T904 1098L880 1073Z"/><glyph unicode="ú" horiz-adv-x="1040" d="M395 -25Q330 -25 285 0T211 70T169 176T156 309V739Q153 771 142 798T109 842Q92 854 65 863T12 874V913L328 938L342 924V281Q342 228 352 188T382 122T426 83T481 70Q529 70 565 84T627 117T669 159T694 197V745Q691 777 680 804T647 848Q632 860 598 866T528 874V913L864 938L879 924V182Q879 150 891 126T926 84Q943 72 968 66T1018 57V18L709 -4L696 10V135H690Q664 106 637 77T576 26T498 -11T395 -25ZM430 1073L405 1098Q440 1155 466 1200T513 1282T549 1349T581 1409Q606 1457 633 1477T696 1497Q712 1497 726 1491T751 1473T768 1448T774 1419Q774 1381 757 1359T708 1307Q687 1288 662 1268T604 1220T528 1158T430 1073Z"/><glyph unicode="û" horiz-adv-x="1040" d="M395 -25Q330 -25 285 0T211 70T169 176T156 309V739Q153 771 142 798T109 842Q92 854 65 863T12 874V913L328 938L342 924V281Q342 228 352 188T382 122T426 83T481 70Q529 70 565 84T627 117T669 159T694 197V745Q691 777 680 804T647 848Q632 860 598 866T528 874V913L864 938L879 924V182Q879 150 891 126T926 84Q943 72 968 66T1018 57V18L709 -4L696 10V135H690Q664 106 637 77T576 26T498 -11T395 -25ZM236 1081L209 1106Q281 1225 329 1312T412 1456Q420 1471 427 1479T442 1493T463 1499T496 1501Q516 1501 527 1500T547 1494T560 1481T574 1460Q608 1404 657 1316T778 1106L752 1081L492 1350L236 1081Z"/><glyph unicode="ü" horiz-adv-x="1040" d="M395 -25Q330 -25 285 0T211 70T169 176T156 309V739Q153 771 142 798T109 842Q92 854 65 863T12 874V913L328 938L342 924V281Q342 228 352 188T382 122T426 83T481 70Q529 70 565 84T627 117T669 159T694 197V745Q691 777 680 804T647 848Q632 860 598 866T528 874V913L864 938L879 924V182Q879 150 891 126T926 84Q943 72 968 66T1018 57V18L709 -4L696 10V135H690Q664 106 637 77T576 26T498 -11T395 -25ZM692 1200Q668 1200 648 1209T612 1234T587 1271T578 1317Q578 1341 587 1363T611 1401T647 1428T692 1438Q719 1438 741 1429T779 1404T804 1368T813 1325Q813 1299 804 1277T779 1237T741 1210T692 1200ZM305 1200Q281 1200 261 1209T225 1234T200 1271T191 1317Q191 1341 200 1363T224 1401T260 1428T305 1438Q332 1438 354 1429T392 1404T417 1368T426 1325Q426 1299 417 1277T392 1237T354 1210T305 1200Z"/><glyph unicode="ý" horiz-adv-x="848" d="M113 -463Q93 -463 68 -456T21 -432T-17 -389T-33 -324Q-33 -304 -26 -283T-5 -245T28 -216T72 -205Q87 -205 106 -209T143 -225T172 -256T184 -307V-375Q203 -370 223 -352T262 -308T299 -249T334 -185Q372 -109 406 -16Q373 74 347 145T297 278T252 394T207 508T159 633T102 782Q94 804 79 821T44 851T3 872T-39 883V926H389V879Q374 878 356 876T323 869T297 856T287 836Q287 834 290 823T299 793Q311 756 334 695T384 561T442 407T502 248H504Q528 313 550 373T593 493T635 618T682 754Q687 766 690 782T694 811Q694 826 677 839T636 862T591 877T557 885V926H901V887Q888 885 868 875T826 850T787 814T760 772Q743 731 718 669T665 534T607 383T551 233Q532 182 516 137T487 56T467 -2T457 -31Q416 -134 383 -206T320 -327T266 -402T215 -442T166 -459T113 -463ZM507 1073L482 1098Q517 1155 543 1200T590 1282T626 1349T658 1409Q683 1457 710 1477T773 1497Q789 1497 803 1491T828 1473T845 1448T851 1419Q851 1381 834 1359T785 1307Q764 1288 739 1268T681 1220T605 1158T507 1073Z"/><glyph unicode="þ" horiz-adv-x="1008" d="M-12 -463V-422Q12 -420 44 -415T94 -403Q120 -394 131 -368T143 -307V1329Q140 1361 128 1388T92 1432Q84 1438 69 1444T38 1454T4 1462T-25 1466V1505L313 1528L328 1516V821L334 819Q350 838 374 861T431 904T501 938T584 952Q663 952 732 917T852 816T932 660T961 455Q961 350 927 262T836 110T705 11T549 -25Q467 -25 418 -6T336 39H328V-295Q328 -329 341 -354T381 -391Q391 -396 408 -401T444 -410T481 -418T512 -422V-463H-12ZM524 18Q576 18 618 46T691 130T737 266T754 453Q754 529 742 602T701 732T627 823T514 858Q449 858 405 834T328 766V182Q335 158 350 129T390 76T447 35T524 18Z"/><glyph unicode="ÿ" horiz-adv-x="848" d="M113 -463Q93 -463 68 -456T21 -432T-17 -389T-33 -324Q-33 -304 -26 -283T-5 -245T28 -216T72 -205Q87 -205 106 -209T143 -225T172 -256T184 -307V-375Q203 -370 223 -352T262 -308T299 -249T334 -185Q372 -109 406 -16Q373 74 347 145T297 278T252 394T207 508T159 633T102 782Q94 804 79 821T44 851T3 872T-39 883V926H389V879Q374 878 356 876T323 869T297 856T287 836Q287 834 290 823T299 793Q311 756 334 695T384 561T442 407T502 248H504Q528 313 550 373T593 493T635 618T682 754Q687 766 690 782T694 811Q694 826 677 839T636 862T591 877T557 885V926H901V887Q888 885 868 875T826 850T787 814T760 772Q743 731 718 669T665 534T607 383T551 233Q532 182 516 137T487 56T467 -2T457 -31Q416 -134 383 -206T320 -327T266 -402T215 -442T166 -459T113 -463ZM902 1200Q878 1200 858 1209T822 1234T797 1271T788 1317Q788 1341 797 1363T821 1401T857 1428T902 1438Q929 1438 951 1429T989 1404T1014 1368T1023 1325Q1023 1299 1014 1277T989 1237T951 1210T902 1200ZM515 1200Q491 1200 471 1209T435 1234T410 1271T401 1317Q401 1341 410 1363T434 1401T470 1428T515 1438Q542 1438 564 1429T602 1404T627 1368T636 1325Q636 1299 627 1277T602 1237T564 1210T515 1200Z"/><glyph unicode="ı" horiz-adv-x="522" d="M47 0V41Q72 43 92 46T131 55Q157 65 169 90T182 147V735Q179 767 167 794T131 838Q123 844 109 850T79 862T47 872T18 877V915L354 938L367 924V160Q367 128 380 103T418 66Q439 55 462 49T502 41V0H47Z"/><glyph unicode="Ł" horiz-adv-x="1155" d="M68 0V45Q81 46 100 48T140 53T178 60T205 68Q239 82 250 109T262 170V610L106 549L88 602L262 672V1212Q262 1246 251 1272T205 1315Q193 1321 175 1327T137 1339T99 1349T68 1354V1399H670V1354Q658 1353 640 1350T601 1343T562 1334T530 1325Q496 1313 486 1285T475 1223V758L756 872L774 817L475 696V244Q475 179 481 141T509 84T575 60T694 55Q734 55 776 57T854 66T919 83T961 109Q979 130 1003 168T1051 248T1093 331T1120 397H1169L1141 0H68Z"/><glyph unicode="ł" horiz-adv-x="551" d="M53 0V41Q78 43 96 45T135 55Q161 65 172 89T184 147V592L55 541L37 594L184 653V1309Q184 1344 171 1376T135 1425Q127 1432 111 1439T75 1452T37 1461T6 1466V1505L356 1528L369 1513V723L508 780L526 725L369 662V160Q369 90 418 66Q439 55 457 49T500 41V0H53Z"/><glyph unicode="Œ" horiz-adv-x="1929" d="M647 -4Q536 -4 429 42T242 180Q160 273 111 397T61 684Q61 846 103 973T225 1198Q267 1249 317 1287T423 1351T537 1390T655 1403Q713 1403 760 1403T849 1401T932 1400T1016 1399H1798V1081H1745Q1737 1115 1716 1157T1668 1237T1608 1302T1546 1335Q1530 1337 1509 1338T1465 1341T1418 1342T1372 1343H1182V754H1331Q1370 754 1397 760T1442 776T1472 797T1491 817Q1501 829 1510 852T1528 903T1541 958T1548 1006H1604V434H1548Q1547 456 1541 486T1527 546T1509 599T1491 633Q1482 645 1470 656T1440 676T1395 690T1331 696H1182V246Q1182 183 1190 146T1222 90T1289 65T1401 59Q1449 59 1495 59T1581 64T1650 78T1698 106Q1719 130 1742 169T1787 251T1824 331T1847 393H1898L1874 0H1016Q923 0 831 -2T647 -4ZM674 53Q722 53 754 58T810 73T850 96T885 127Q914 154 931 218T958 363T970 534T973 702Q973 783 973 867T965 1026T942 1161T895 1255Q854 1301 802 1322T674 1343Q588 1343 519 1299T400 1172T325 968T299 694Q299 563 322 447T392 243T509 104T674 53Z"/><glyph unicode="œ" horiz-adv-x="1499" d="M471 -29Q387 -29 310 5T175 102T82 255T47 459Q47 568 78 658T167 814T306 916T485 952Q600 952 677 907T805 786Q830 822 862 852T932 904T1014 939T1108 952Q1205 952 1272 920T1382 834T1443 709T1462 559V541H909V518Q909 419 924 336T972 193T1056 100T1180 66Q1232 66 1269 77T1336 110T1389 167T1440 248L1477 223Q1452 169 1417 124T1336 45T1238 -6T1126 -25Q1066 -25 1018 -13T931 21T860 74T801 145Q772 107 740 75T668 20T580 -16T471 -29ZM909 586L1266 590Q1266 645 1260 701T1235 802T1186 876T1106 905Q1064 905 1029 882T968 818T926 717T909 586ZM483 18Q542 18 585 54T655 152T696 296T709 471Q709 552 698 629T661 768T591 867T483 905Q436 905 401 887T341 837T298 763T271 673T256 575T252 475Q252 383 264 301T304 155T376 55T483 18Z"/><glyph unicode="Š" d="M545 -27Q486 -27 435 -18T343 5T269 37T215 74L152 -20H84L72 459H117Q147 378 186 302T277 166T399 71T557 35Q621 35 669 53T749 106T797 187T813 293Q813 387 766 456T625 565Q585 582 550 596T480 625T411 654T336 688Q230 737 170 825T109 1047Q109 1128 139 1197T223 1317T349 1396T506 1425Q543 1425 583 1418T661 1397T734 1366T795 1327L854 1419H924L934 954H889Q860 1041 826 1116T743 1246T628 1332T467 1364Q446 1364 413 1354T349 1320T295 1255T272 1155Q272 1108 282 1071T314 1002T368 943T444 891Q480 870 515 855T585 826T653 799T719 770Q777 741 826 709T912 635T968 535T989 399Q989 306 956 228T863 93T723 5T545 -27ZM529 1472Q509 1472 497 1473T478 1479T464 1492T451 1513Q417 1569 368 1658T246 1868L273 1892L533 1624L789 1892L815 1868Q743 1749 695 1662T613 1517Q604 1502 598 1494T583 1480T562 1474T529 1472Z"/><glyph unicode="š" horiz-adv-x="735" d="M360 -29Q326 -29 292 -21T227 -1T173 25T137 53L119 -10H57L49 307H92Q97 282 109 251T140 188T183 126T237 73T300 35T371 20Q417 20 449 33T503 71T533 127T543 197Q543 234 529 262T488 313T422 353T332 389Q287 404 241 427T158 484T96 566T72 680Q72 737 93 786T153 872T245 930T362 952Q418 952 471 939T559 899L573 954H631L643 672H602Q595 715 575 757T523 832T450 885T362 905Q324 905 297 892T251 857T224 810T215 758Q215 717 227 690T265 642T330 604T424 567Q480 546 527 520T610 458T664 375T684 264Q684 196 658 142T588 49T485 -9T360 -29ZM628 1081Q608 1081 596 1082T577 1088T563 1101T550 1122Q516 1178 467 1267T345 1477L372 1501L632 1233L888 1501L914 1477Q842 1358 794 1271T712 1126Q703 1111 697 1103T682 1089T661 1083T628 1081Z"/><glyph unicode="Ÿ" horiz-adv-x="1147" d="M240 0V45Q252 46 274 48T320 54T365 62T395 70Q429 84 441 111T453 172V528Q453 559 439 597T403 682Q340 821 281 944T162 1180Q137 1226 109 1261T49 1319Q37 1326 21 1332T-11 1343T-44 1350T-74 1354V1399H541V1354Q516 1352 484 1348T423 1335T374 1313T354 1282Q354 1268 385 1199T471 1018Q505 947 547 864T637 688Q690 781 736 865T819 1018Q870 1115 900 1178T930 1255Q930 1280 911 1298T862 1327T798 1345T731 1354V1399H1227V1354Q1218 1353 1203 1349T1171 1338T1139 1325T1116 1313Q1098 1301 1085 1291T1060 1269T1038 1243T1012 1208Q973 1155 937 1097T864 975T792 839T717 686Q705 662 695 632T678 571T668 510T664 455V182Q664 147 676 121T721 80Q729 76 750 71T795 60T842 50T877 45V0H240ZM815 1591Q791 1591 771 1600T735 1625T710 1662T701 1708Q701 1732 710 1754T734 1792T770 1819T815 1829Q842 1829 864 1820T902 1795T927 1759T936 1716Q936 1690 927 1668T902 1628T864 1601T815 1591ZM428 1591Q404 1591 384 1600T348 1625T323 1662T314 1708Q314 1732 323 1754T347 1792T383 1819T428 1829Q455 1829 477 1820T515 1795T540 1759T549 1716Q549 1690 540 1668T515 1628T477 1601T428 1591Z"/><glyph unicode="Ž" horiz-adv-x="1141" d="M-2 0V25L858 1343H530Q484 1343 443 1341T373 1333Q336 1325 298 1290T225 1209T164 1112T123 1022H72L111 1399H1112V1374L252 55H633Q674 55 715 57T793 66T856 83T899 109Q929 139 957 179T1011 261T1055 345T1087 420H1137L1094 0H-2ZM584 1493Q564 1493 552 1494T533 1500T519 1513T506 1534Q472 1590 423 1679T301 1889L328 1913L588 1645L844 1913L870 1889Q798 1770 750 1683T668 1538Q659 1523 653 1515T638 1501T617 1495T584 1493Z"/><glyph unicode="ž" horiz-adv-x="801" d="M35 0V31L539 872H461Q423 872 386 872T316 869T255 862T209 850Q196 845 183 828T158 786T136 728T119 659H72V926H760V907L250 53Q294 51 328 51T397 51Q434 51 482 51T580 57Q615 60 633 84T666 137Q673 151 680 172T695 218T709 267T719 309H764V0H35ZM667 1081Q647 1081 635 1082T616 1088T602 1101T589 1122Q555 1178 506 1267T384 1477L411 1501L671 1233L927 1501L953 1477Q881 1358 833 1271T751 1126Q742 1111 736 1103T721 1089T700 1083T667 1081Z"/><glyph unicode="ƒ" horiz-adv-x="948" d="M-57 -395Q-112 -395 -150 -383T-213 -351T-249 -303T-260 -244Q-260 -202 -236 -171T-162 -139Q-118 -139 -87 -168T-55 -254Q-55 -280 -65 -302T-86 -338Q-74 -356 -53 -356Q-2 -356 36 -331T105 -252T159 -116T205 80Q223 174 238 270T268 457T293 629T315 776H127L139 844H324Q336 927 354 995T397 1120T453 1226T524 1319Q583 1385 647 1408T776 1432Q824 1432 864 1419T933 1384T978 1332T995 1272Q995 1254 989 1236T971 1202T941 1177T897 1167Q876 1167 857 1173T822 1192T798 1223T788 1268Q788 1289 792 1311T807 1366Q799 1378 790 1384T766 1391Q677 1391 620 1288T528 965L510 844H733L721 776H502Q488 690 475 601T448 428T422 270T397 137Q386 79 368 22T326 -89T270 -190T199 -276Q164 -310 133 -333T70 -369T8 -389T-57 -395Z"/><glyph unicode="ˆ" horiz-adv-x="922" d="M203 1081L176 1106Q248 1225 296 1312T379 1456Q387 1471 394 1479T409 1493T430 1499T463 1501Q483 1501 494 1500T514 1494T527 1481T541 1460Q575 1404 624 1316T745 1106L719 1081L459 1350L203 1081Z"/><glyph unicode="ˇ" horiz-adv-x="922" d="M459 1081Q439 1081 427 1082T408 1088T394 1101T381 1122Q347 1178 298 1267T176 1477L203 1501L463 1233L719 1501L745 1477Q673 1358 625 1271T543 1126Q534 1111 528 1103T513 1089T492 1083T459 1081Z"/><glyph unicode="˘" horiz-adv-x="922" d="M461 1104Q423 1104 384 1122T306 1183T234 1297T174 1475L211 1487Q232 1436 258 1394T315 1322T382 1276T461 1260Q503 1260 539 1276T606 1322T662 1394T709 1487L748 1475Q722 1369 688 1298T616 1183T538 1122T461 1104Z"/><glyph unicode="˙" horiz-adv-x="922" d="M459 1200Q435 1200 414 1209T378 1234T353 1271T344 1317Q344 1341 353 1363T377 1401T414 1428T459 1438Q486 1438 508 1429T546 1404T571 1368T580 1325Q580 1299 571 1277T546 1237T507 1210T459 1200Z"/><glyph unicode="˚" horiz-adv-x="922" d="M461 1087Q412 1087 372 1101T304 1142T261 1205T246 1288Q246 1333 263 1370T309 1433T377 1474T461 1489Q507 1489 546 1475T614 1434T659 1371T676 1288Q676 1244 661 1207T617 1144T549 1102T461 1087ZM461 1135Q515 1135 544 1177T573 1288Q573 1321 566 1349T544 1398T509 1430T461 1442Q408 1442 378 1401T348 1288Q348 1220 377 1178T461 1135Z"/><glyph unicode="˛" horiz-adv-x="922" d="M625 -463Q541 -462 475 -454T364 -425T294 -373T270 -293Q270 -206 326 -137T498 0H557Q482 -82 449 -150T416 -279Q416 -312 426 -335T461 -373T526 -397T625 -412V-463Z"/><glyph unicode="˜" horiz-adv-x="922" d="M141 1143L106 1159Q118 1190 138 1230T188 1305T254 1365T336 1389Q389 1389 426 1374T494 1342T552 1309T614 1294Q656 1294 681 1302T722 1325T749 1363T774 1415L811 1401Q802 1368 782 1328T731 1253T662 1195T578 1171Q540 1171 512 1178T460 1195T416 1218T377 1241T336 1259T289 1266Q260 1266 241 1259T205 1236T174 1198T141 1143Z"/><glyph unicode="˝" horiz-adv-x="922" d="M459 1094L436 1118Q470 1175 496 1220T544 1302T582 1370T614 1430Q640 1480 663 1499T719 1518Q733 1518 744 1512T764 1494T777 1469T782 1440Q782 1402 765 1379T715 1327Q696 1309 673 1289T620 1241T551 1179T459 1094ZM125 1094L102 1118Q137 1175 163 1220T211 1302T249 1370T281 1430Q306 1480 329 1499T385 1518Q399 1518 410 1512T430 1494T444 1469T449 1440Q449 1402 431 1379T381 1327Q362 1309 340 1289T287 1241T218 1179T125 1094Z"/><glyph unicode="̄" horiz-adv-x="922" d="M156 1223V1346H764V1223H156Z"/><glyph unicode="Δ" horiz-adv-x="1536" d="M76 0L652 1536H884L1456 0H76ZM352 148H1164L752 1256L352 148Z"/><glyph unicode="Ω" horiz-adv-x="1188" d="M100 485V580H1087V485H100Z"/><glyph unicode="μ" horiz-adv-x="1057" d="M207 -463Q189 -463 171 -456T140 -434T118 -402T109 -360Q109 -331 114 -293T125 -216T137 -138T147 -72Q152 -22 155 26T158 129V926H342V283Q342 231 355 192T391 125T442 84T502 70Q551 70 584 81T640 109T676 145T698 180V926H883V193Q883 177 887 158T902 123T928 97T967 86Q988 86 1001 99T1021 135T1031 186T1036 244H1081Q1076 106 1022 44T874 -18Q814 -18 768 17T702 127H698Q674 93 648 66T591 20T524 -9T444 -20Q418 -20 390 -13T335 7T285 42T244 92H242V6Q242 -51 252 -100T275 -192T298 -276T309 -358Q309 -384 300 -404T277 -437T245 -456T207 -463Z"/><glyph unicode="π" horiz-adv-x="1408" d="M296 0V1028H12V1176H1316V1028H996V344Q996 228 1042 184T1152 140Q1200 140 1232 142T1296 156V28Q1248 4 1206 -6T1088 -16Q960 -16 886 64T812 336V1028H484V0H296Z"/><glyph unicode="–" horiz-adv-x="999" d="M92 481V606H907V481H92Z"/><glyph unicode="—" horiz-adv-x="1714" d="M137 461V582H1577V461H137Z"/><glyph unicode="‘" horiz-adv-x="358" d="M190 975Q150 975 121 990T74 1032T46 1095T37 1174Q37 1242 64 1295T131 1388T216 1458T299 1507L326 1462Q289 1442 256 1419T197 1365T154 1296T129 1210H180Q218 1210 243 1200T284 1172T306 1134T313 1090Q313 1069 304 1049T279 1012T241 985T190 975Z"/><glyph unicode="’" horiz-adv-x="358" d="M82 977L55 1022Q92 1042 125 1065T183 1119T227 1188T252 1274H201Q163 1274 138 1284T97 1312T75 1350T68 1395Q68 1416 77 1436T102 1472T140 1499T190 1509Q230 1509 259 1494T307 1452T335 1389T344 1311Q344 1242 317 1189T250 1096T165 1026T82 977Z"/><glyph unicode="‚" horiz-adv-x="358" d="M82 -293L55 -248Q92 -228 125 -205T183 -151T227 -82T252 4H201Q163 4 138 14T97 42T75 81T68 125Q68 146 77 166T102 203T140 230T190 240Q230 240 259 225T307 183T335 120T344 41Q344 -27 317 -80T250 -174T165 -244T82 -293Z"/><glyph unicode="“" horiz-adv-x="690" d="M520 975Q480 975 451 990T404 1032T376 1095T367 1174Q367 1242 394 1295T461 1388T546 1458T629 1507L655 1462Q618 1442 586 1418T527 1364T484 1295T459 1208H504Q541 1208 566 1198T608 1172T630 1134T637 1090Q637 1069 629 1049T606 1012T570 985T520 975ZM188 975Q148 975 119 990T72 1032T44 1095T35 1174Q35 1242 62 1295T129 1388T214 1458T297 1507L324 1462Q287 1442 254 1418T195 1364T152 1295T127 1208H172Q209 1208 234 1198T276 1172T298 1134T305 1090Q305 1069 297 1049T274 1012T238 985T188 975Z"/><glyph unicode="”" horiz-adv-x="690" d="M414 979L387 1024Q424 1044 456 1067T515 1121T559 1190T584 1276H539Q501 1276 476 1286T435 1313T413 1351T406 1395Q406 1416 414 1436T437 1472T473 1499T522 1509Q562 1509 591 1494T639 1452T667 1389T676 1311Q676 1242 649 1189T582 1096T497 1028T414 979ZM82 979L55 1024Q92 1044 125 1067T183 1121T227 1190T252 1276H207Q169 1276 144 1286T103 1313T81 1351T74 1395Q74 1416 82 1436T105 1472T141 1499T190 1509Q230 1509 259 1494T307 1452T335 1389T344 1311Q344 1242 317 1189T250 1096T165 1028T82 979Z"/><glyph unicode="„" horiz-adv-x="690" d="M414 -293L387 -248Q424 -228 456 -205T515 -151T559 -82T584 4H539Q501 4 476 14T435 41T413 79T406 123Q406 144 414 164T437 201T473 228T522 238Q562 238 591 223T639 181T667 118T676 39Q676 -29 649 -82T582 -175T497 -244T414 -293ZM82 -293L55 -248Q92 -228 125 -205T183 -151T227 -82T252 4H207Q169 4 144 14T103 41T81 79T74 123Q74 144 82 164T105 201T141 228T190 238Q230 238 259 223T307 181T335 118T344 39Q344 -29 317 -82T250 -175T165 -244T82 -293Z"/><glyph unicode="†" horiz-adv-x="803" d="M381 205Q379 291 375 390T365 590T353 789T342 971Q339 1006 335 1022T311 1038Q293 1038 276 1024T239 991T200 959T156 944Q115 944 88 968T61 1036Q61 1062 79 1081T123 1100Q146 1100 165 1083T190 1038Q202 1039 215 1046T244 1061T274 1075T305 1081Q330 1081 348 1076T379 1059Q377 1096 369 1137T351 1217T335 1289T328 1346Q328 1361 332 1376T346 1403T369 1422T401 1430Q420 1430 434 1423T457 1403T470 1376T475 1346Q475 1323 468 1289T452 1216T434 1136T422 1059Q437 1071 455 1076T498 1081Q513 1081 528 1075T558 1061T587 1046T612 1038Q619 1066 638 1083T682 1100Q708 1100 725 1081T743 1036Q743 993 715 969T647 944Q624 944 604 958T564 991T528 1023T492 1038Q472 1038 468 1022T461 971Q455 887 450 790T439 591T429 391T424 205H381Z"/><glyph unicode="‡" horiz-adv-x="823" d="M391 752Q389 787 385 834T377 928T368 1013T360 1067Q358 1083 356 1097T350 1121T340 1137T322 1143Q297 1143 278 1136T241 1119T205 1102T164 1094Q124 1094 105 1113T86 1165Q86 1191 103 1209T147 1227Q172 1227 191 1210T217 1165Q239 1168 260 1177T315 1186Q338 1186 356 1181T389 1163Q385 1182 377 1205T361 1252T346 1300T340 1348Q340 1363 344 1378T357 1404T379 1423T412 1430Q449 1430 466 1405T483 1348Q483 1325 477 1301T462 1252T446 1204T434 1163Q448 1176 466 1181T508 1186Q543 1186 565 1177T608 1165Q614 1193 632 1210T676 1227Q702 1227 719 1209T737 1165Q737 1133 719 1114T659 1094Q636 1094 618 1101T582 1118T545 1135T502 1143Q480 1143 474 1121T463 1067Q461 1051 457 1013T449 929T440 835T434 752H391ZM412 8Q393 8 380 15T357 33T344 60T340 90Q340 112 346 136T360 185T377 232T389 274Q364 252 315 252Q281 252 260 260T217 274Q211 245 192 228T147 211Q121 211 104 228T86 272Q86 304 105 324T164 344Q187 344 205 337T241 321T278 305T322 297Q345 297 350 318T360 373Q363 388 367 426T376 510T385 604T391 688H434Q435 652 439 604T448 510T457 426T463 373Q468 339 474 318T502 297Q526 297 545 304T582 320T618 336T659 344Q700 344 718 324T737 272Q737 246 720 229T676 211Q651 211 633 228T608 274Q587 269 565 261T508 252Q485 252 467 257T434 274Q438 256 446 233T462 186T476 137T483 90Q483 59 466 34T412 8Z"/><glyph unicode="•" horiz-adv-x="844" d="M422 391Q365 391 315 412T226 471T165 559T143 666Q143 723 165 773T225 862T314 922T422 944Q479 944 529 922T618 862T678 774T700 666Q700 609 678 559T618 472T530 413T422 391Z"/><glyph unicode="…" horiz-adv-x="1401" d="M1167 -16Q1140 -16 1117 -6T1075 21T1047 62T1036 113Q1036 140 1046 163T1075 205T1116 233T1167 244Q1194 244 1218 234T1259 205T1287 164T1298 113Q1298 86 1288 63T1260 22T1218 -6T1167 -16ZM700 -16Q673 -16 650 -6T608 21T580 62T569 113Q569 140 579 163T608 205T649 233T700 244Q727 244 751 234T792 205T820 164T831 113Q831 86 821 63T793 22T751 -6T700 -16ZM233 -16Q206 -16 183 -6T141 21T113 62T102 113Q102 140 112 163T141 205T182 233T233 244Q260 244 284 234T326 205T354 164T365 113Q365 86 355 63T326 22T284 -6T233 -16Z"/><glyph unicode="‰" horiz-adv-x="2261" d="M410 580Q338 580 282 612T187 700T129 830T109 987Q109 1092 135 1175T205 1315T305 1402T420 1432Q491 1432 546 1400T640 1313T699 1183T719 1024Q719 919 693 837T624 697T526 610T410 580ZM432 -51L373 -20L1139 1438L1202 1407L432 -51ZM1851 -33Q1779 -33 1723 -1T1629 88T1570 218T1550 375Q1550 480 1576 562T1646 702T1746 789T1862 819Q1933 819 1988 787T2082 700T2141 571T2161 412Q2161 307 2135 225T2066 85T1967 -2T1851 -33ZM1159 -33Q1087 -33 1031 -1T937 88T878 218T858 375Q858 480 884 562T954 702T1054 789T1169 819Q1241 819 1296 787T1390 700T1448 571T1468 412Q1468 307 1442 225T1374 85T1275 -2T1159 -33ZM412 623Q446 623 475 649T524 724T555 845T567 1008Q567 1089 559 1158T534 1280T487 1361T416 1391Q381 1391 353 1365T304 1289T272 1167T260 1004Q260 921 268 851T294 731T341 652T412 623ZM1853 10Q1888 10 1916 36T1965 112T1997 233T2009 395Q2009 476 2001 545T1976 667T1929 748T1858 778Q1823 778 1795 752T1746 676T1714 554T1702 391Q1702 308 1710 238T1736 118T1783 39T1853 10ZM1161 10Q1195 10 1224 36T1273 112T1305 233T1317 395Q1317 476 1309 545T1283 667T1236 748T1165 778Q1130 778 1102 752T1053 676T1022 554T1010 391Q1010 308 1018 238T1044 118T1091 39T1161 10Z"/><glyph unicode="‹" horiz-adv-x="670" d="M518 31Q454 88 396 139T288 235T199 315T133 373Q121 383 113 389T101 404T94 425T92 459Q92 477 93 489T99 509T111 524T129 541Q153 561 193 595T285 674T396 772T518 885L551 858L262 455L551 57L518 31Z"/><glyph unicode="›" horiz-adv-x="672" d="M154 31L119 57L410 455L119 858L154 885Q216 826 275 773T386 674T478 595T543 541Q553 532 560 525T571 509T578 489T580 459Q580 438 578 426T571 405T558 390T539 373Q513 350 474 315T384 236T276 140T154 31Z"/><glyph unicode="⁄" horiz-adv-x="627" d="M-43 -51L-102 -20L664 1438L727 1407L-43 -51Z"/><glyph unicode="€" horiz-adv-x="1065" d="M618 -29Q514 -29 433 12T293 129T199 315T154 561H6V608H152Q150 627 150 645T150 682Q150 699 150 717T152 752H6V799H156Q164 876 183 952T233 1099T306 1230T403 1336T525 1406T672 1432Q753 1432 818 1410T929 1349T999 1260T1024 1153Q1024 1108 1014 1079T988 1033T953 1008T915 1001Q891 1001 871 1008T835 1029T810 1060T801 1102Q801 1129 807 1147T820 1180T835 1211T844 1251Q839 1277 826 1300T791 1340T737 1368T664 1378Q603 1378 550 1342T456 1232T389 1051T354 799H797V752H352V692Q352 671 352 650T354 608H717V561H356Q365 447 387 357T448 203T541 107T672 74Q732 74 778 93T862 149T930 238T987 356L1036 332Q1007 256 969 190T881 76T766 -1T618 -29Z"/><glyph unicode="℗" horiz-adv-x="1946" d="M975 -326Q851 -326 737 -295T523 -205T342 -66T202 113T112 324T80 559Q80 680 111 792T201 1002T340 1180T521 1319T736 1408T975 1440Q1098 1440 1212 1409T1425 1319T1605 1181T1744 1002T1834 792T1866 559Q1866 437 1834 324T1745 113T1606 -66T1425 -205T1212 -294T975 -326ZM975 -256Q1087 -256 1190 -227T1382 -146T1544 -19T1669 146T1749 341T1778 559Q1778 671 1750 774T1669 967T1545 1131T1383 1257T1190 1339T975 1368Q862 1368 759 1339T566 1258T403 1131T277 968T197 775T168 559Q168 446 196 342T277 147T402 -18T565 -145T758 -227T975 -256ZM602 96V139Q614 140 632 142T668 148T701 154T725 160Q753 169 762 186T772 221V893Q772 912 763 930T725 956Q710 960 693 964T659 971T625 977T596 981V1024H1124Q1189 1024 1246 1008T1345 962T1411 890T1436 793Q1436 721 1404 666T1320 572T1201 514T1063 494H954V221Q954 203 963 186T997 160Q1004 158 1022 155T1063 148T1108 143T1147 139V96H602ZM954 547H1016Q1086 547 1128 571T1192 630T1222 699T1229 758Q1229 795 1221 834T1191 904T1134 955T1042 975H954V547Z"/><glyph unicode="™" horiz-adv-x="1200" d="M520 887V913Q524 914 532 915T551 918T572 924T588 932Q610 951 610 1032V1286Q610 1311 605 1324T590 1348Q576 1357 557 1363T524 1370V1399H715L846 1040L954 1331Q961 1348 964 1366T969 1399H1159V1370Q1155 1370 1148 1369T1132 1366T1115 1362T1102 1358Q1083 1348 1083 1323V963Q1083 937 1102 928Q1106 926 1114 924T1131 919T1148 916T1161 913V887H911V913Q916 914 926 915T947 918T967 922T981 926Q990 932 994 940T999 963V1319H987L827 893H805Q799 916 790 942T770 999L659 1309H649V1038Q649 995 654 971T670 938Q675 933 685 929T707 922T728 916T743 913V887H520ZM150 887V913Q154 914 162 915T180 917T198 920T211 924Q231 933 231 956V1360H207Q196 1360 181 1360T154 1358Q142 1356 131 1343T110 1313T93 1277T84 1247H59V1399H487V1247H465Q461 1259 454 1277T438 1312T418 1343T395 1358Q383 1360 370 1360T342 1360H319V961Q319 935 340 926Q343 925 350 924T367 920T384 916T397 913V887H150Z"/><glyph unicode="Ω" horiz-adv-x="1188" d="M100 485V580H1087V485H100Z"/><glyph unicode="∂" horiz-adv-x="1280" d="M476 -32Q276 -32 166 80T56 360Q56 580 214 750T604 920Q700 920 802 886T964 816Q976 900 976 984Q976 1172 908 1278T720 1384Q592 1384 518 1356T368 1280L324 1444Q400 1488 492 1518T720 1548Q956 1548 1064 1394T1172 968Q1172 552 968 260T476 -32ZM488 128Q660 128 774 268T944 684Q912 716 824 748T648 780Q456 780 360 654T264 372Q264 264 318 196T488 128Z"/><glyph unicode="∆" horiz-adv-x="1536" d="M76 0L652 1536H884L1456 0H76ZM352 148H1164L752 1256L352 148Z"/><glyph unicode="∏" horiz-adv-x="1536" d="M332 0V1348H80V1524H1456V1348H1212V0H1004V1356H540V0H332Z"/><glyph unicode="∑" horiz-adv-x="1152" d="M1084 1524V1344H332L796 784L304 188H1080V0H40V172L560 788L68 1380V1524H1084Z"/><glyph unicode="−" horiz-adv-x="1188" d="M100 485V580H1087V485H100Z"/><glyph unicode="∕" horiz-adv-x="627" d="M-43 -51L-102 -20L664 1438L727 1407L-43 -51Z"/><glyph unicode="∙" horiz-adv-x="549" d="M274 422Q246 422 222 432T179 461T150 503T139 557Q139 585 149 610T178 654T221 683T274 694Q302 694 327 684T370 654T399 610T410 557Q410 528 400 504T371 461T327 433T274 422Z"/><glyph unicode="√" horiz-adv-x="1280" d="M120 440L40 612L360 896L612 304L1112 1548H1304L612 -128H588L288 604L120 440Z"/><glyph unicode="∞" horiz-adv-x="1536" d="M468 1216Q616 1216 706 1134T848 840Q856 660 920 608T1072 556Q1156 556 1218 626T1280 816Q1280 916 1234 988T1080 1060Q972 1060 920 968T836 752Q796 596 688 496T440 396Q284 396 190 508T96 808Q96 984 208 1100T468 1216ZM1072 396Q924 396 840 482T712 764Q672 924 614 986T472 1048Q376 1048 316 982T256 792Q256 668 302 610T448 552Q540 552 608 624T716 864Q764 1044 860 1130T1100 1216Q1248 1216 1346 1112T1444 820Q1444 640 1340 518T1072 396Z"/><glyph unicode="∫" horiz-adv-x="1152" d="M-8 -392L56 -260Q80 -268 104 -274T164 -280Q212 -280 242 -246T288 -112L516 1224Q544 1384 636 1464T880 1544Q972 1544 1042 1522T1152 1476L1088 1304Q1044 1332 988 1356T868 1380Q776 1380 730 1322T672 1188L448 -224Q428 -332 350 -382T176 -432Q116 -432 66 -420T-8 -392Z"/><glyph unicode="≈" horiz-adv-x="1536" d="M236 400Q228 444 228 480Q228 580 288 652T476 724Q576 724 650 696T788 642T912 598T1020 580Q1096 580 1128 610T1160 684Q1160 700 1156 716H1300Q1308 672 1308 636Q1308 536 1248 464T1060 392Q960 392 886 418T748 470T624 512T516 528Q440 528 408 500T376 432Q376 416 380 400H236ZM236 860Q228 904 228 940Q228 1040 288 1112T476 1184Q576 1184 650 1156T788 1102T912 1058T1020 1040Q1096 1040 1128 1070T1160 1144Q1160 1160 1156 1176H1300Q1308 1132 1308 1096Q1308 996 1248 924T1060 852Q960 852 886 878T748 930T624 972T516 988Q440 988 408 960T376 892Q376 876 380 860H236Z"/><glyph unicode="≠" horiz-adv-x="1536" d="M212 404V604H1328V404H212ZM212 976V1176H1328V976H212ZM548 188H372L996 1356H1168L548 188Z"/><glyph unicode="≤" horiz-adv-x="1536" d="M1348 236L208 708V872L1348 1344V1128L448 792L1348 452V236ZM212 24V216H1348V24H212Z"/><glyph unicode="≥" horiz-adv-x="1536" d="M212 236V452L1112 792L212 1128V1344L1352 872V708L212 236ZM212 24V216H1348V24H212Z"/><glyph unicode="◊" horiz-adv-x="1152" d="M472 -48L68 756L472 1560H656L1084 756L656 -48H472ZM556 152L876 768L572 1356L252 740L556 152Z"/><glyph unicode="" horiz-adv-x="1264" d="M793 -4Q762 -4 734 7T685 39T652 88T639 150Q639 174 645 195T657 238T670 285T676 342V365L662 375Q651 373 642 373T621 373Q589 373 560 383T506 410L479 408Q458 376 450 344T436 283Q431 250 420 220T389 165T343 127T276 113Q246 113 218 125T167 158T132 207T119 270Q119 303 132 331T168 380T222 412T289 424Q302 424 319 424T355 426T396 433T440 451L446 479Q437 499 432 521T426 567Q426 594 432 618L422 645Q408 650 395 650T367 651Q345 651 328 649T295 644T265 639T236 637Q202 637 173 649T123 683T90 733T78 793Q78 824 90 852T122 903T171 937T233 950Q261 950 282 943T321 923T350 896T371 864Q379 846 385 826T399 783T418 739T449 698L479 700Q507 729 543 745T621 762L643 776Q643 817 632 847T608 902T584 953T573 1010Q573 1044 585 1071T619 1118T669 1148T729 1159Q763 1159 791 1147T839 1113T870 1063T881 1004Q881 971 872 949T848 910T814 880T775 851T735 815T700 766L709 741Q744 723 770 693T807 623L831 610Q859 620 880 635T917 666T949 697T982 725T1021 746T1073 754Q1104 754 1131 742T1178 708T1211 658T1223 596Q1223 564 1211 536T1178 488T1129 456T1069 444Q1033 444 1007 457T956 488T902 523T831 547L813 530Q807 493 786 462T733 408L731 387Q756 355 784 338T840 307Q886 286 919 248T952 152Q952 121 940 93T906 44T855 9T793 -4ZM621 426Q651 426 676 437T719 467T747 513T758 569Q758 598 748 623T719 668T676 698T621 709Q592 709 567 698T523 668T494 624T483 569Q483 539 493 513T522 468T566 437T621 426Z"/><glyph unicode="ﬀ" horiz-adv-x="1120" d="M47 0V41Q72 43 92 46T131 55Q157 65 169 89T182 147V842H-6V922H182V985Q182 1118 221 1226T330 1403Q381 1452 447 1484T604 1516Q649 1516 686 1504T751 1473T798 1427T825 1372Q835 1392 848 1405Q907 1473 979 1501T1124 1530Q1179 1530 1217 1514T1278 1473T1312 1415T1323 1350Q1323 1335 1317 1317T1299 1282T1266 1254T1219 1243Q1203 1243 1184 1247T1148 1261T1120 1290T1108 1335Q1108 1358 1116 1384T1124 1444Q1121 1466 1107 1474T1077 1483Q1034 1483 1004 1459T954 1383T923 1247T907 1047Q906 1035 906 1019T905 986T905 952T905 922H1139V842H905V158Q905 126 918 102T956 66Q966 61 982 57T1015 50T1050 44T1079 41V0H600V41Q625 42 638 44T672 55Q698 65 709 89T721 147V846H367V158Q367 126 380 102T418 66Q438 56 456 50T500 41V0H47ZM367 922H721V985Q721 1038 729 1091T750 1194Q709 1196 681 1218T653 1276Q653 1297 657 1312T668 1338T680 1358T688 1378Q688 1419 660 1443T584 1468Q535 1468 497 1446T432 1375T389 1245T369 1047Q368 1035 368 1019T367 986T367 952T367 922Z"/><glyph unicode="ﬁ" horiz-adv-x="1065" d="M47 0V41Q72 43 92 46T131 55Q157 65 169 89T182 147V840H-6V922H182V985Q182 1113 220 1215T326 1399Q346 1423 374 1446T438 1488T514 1518T600 1530Q685 1530 742 1512T833 1465T882 1396T897 1315Q897 1299 892 1279T873 1240T840 1210T791 1198Q773 1198 753 1202T717 1218T689 1246T678 1290Q678 1317 683 1335T694 1365T707 1385T715 1399Q714 1411 709 1425T689 1452T651 1474T590 1483Q548 1483 508 1459T436 1383T386 1248T367 1047V922H655L887 938L901 924V160Q901 126 913 102T950 66Q970 56 989 50T1034 41V0H590V41Q616 43 631 46T666 55Q692 65 704 89T717 147V743Q714 774 706 799T686 846H367V158Q367 88 418 66Q438 56 461 50T510 41V0H47Z"/><glyph unicode="ﬂ" horiz-adv-x="1067" d="M47 0V41Q72 43 92 46T131 55Q157 65 169 89T182 147V840H-6V922H182V985Q182 1113 219 1214T326 1399Q346 1423 374 1446T436 1488T512 1518T598 1530Q667 1530 714 1516T795 1483L887 1528L907 1513V160Q907 126 919 101T958 63Q978 52 998 48T1042 41V0H594V41Q619 43 635 46T672 55Q698 65 710 89T723 147V1210Q714 1213 703 1219T683 1235T668 1258T662 1290Q662 1315 669 1332T686 1362T703 1381T713 1393Q711 1400 707 1415T689 1446T652 1473T588 1485Q548 1485 509 1461T438 1385T387 1249T367 1047V922H594V840H367V158Q367 88 418 66Q438 56 461 50T510 41V0H47Z"/><glyph unicode="ﬃ" horiz-adv-x="1604" d="M848 1378Q853 1383 856 1388T864 1399Q884 1423 913 1446T977 1488T1053 1518T1139 1530Q1224 1530 1281 1512T1372 1465T1421 1396T1436 1315Q1436 1299 1430 1279T1412 1240T1379 1210T1329 1198Q1311 1198 1292 1202T1256 1218T1228 1246T1217 1290Q1217 1317 1222 1335T1233 1365T1245 1385T1253 1399Q1252 1411 1247 1425T1228 1452T1190 1474T1128 1483Q1086 1483 1046 1459T975 1383T924 1248T905 1047V922H1194L1425 938L1440 924V160Q1440 126 1452 102T1489 66Q1509 56 1528 50T1573 41V0H1128V41Q1154 43 1170 46T1204 55Q1230 65 1242 89T1255 147V743Q1249 802 1225 846H905V158Q905 124 918 101T956 66Q976 56 1000 50T1049 41V0H586V41Q610 43 630 46T670 55Q696 65 708 89T721 147V846H367V158Q367 126 380 102T418 66Q438 56 456 50T500 41V0H47V41Q72 43 92 46T131 55Q157 65 169 89T182 147V840H-6V922H182V985Q182 1118 221 1226T330 1403Q381 1452 447 1484T604 1516Q648 1516 687 1505T759 1474T814 1430T848 1378ZM721 922V985Q721 1087 745 1174Q726 1176 709 1186T680 1210T660 1242T653 1276Q653 1297 657 1312T668 1338T680 1358T688 1378Q688 1419 660 1443T584 1468Q535 1468 497 1446T432 1375T389 1245T369 1047Q368 1035 368 1019T367 986T367 952T367 922H721Z"/><glyph unicode="ﬄ" horiz-adv-x="1606" d="M848 1378Q853 1383 856 1388T864 1399Q884 1423 912 1446T975 1488T1051 1518T1137 1530Q1206 1530 1252 1516T1333 1483L1425 1528L1446 1513V160Q1446 126 1458 101T1497 63Q1517 52 1536 48T1581 41V0H1133V41Q1157 43 1173 46T1210 55Q1236 65 1249 89T1262 147V1210Q1253 1213 1242 1219T1222 1235T1206 1258T1200 1290Q1200 1315 1207 1332T1224 1362T1241 1381T1251 1393Q1249 1400 1245 1415T1227 1446T1190 1473T1126 1485Q1086 1485 1047 1461T976 1385T925 1249T905 1047V922H1133V840H905V158Q905 124 918 101T956 66Q976 56 1000 50T1049 41V0H586V41Q610 43 630 46T670 55Q696 65 708 89T721 147V846H367V158Q367 126 380 102T418 66Q438 56 456 50T500 41V0H47V41Q72 43 92 46T131 55Q157 65 169 89T182 147V840H-6V922H182V985Q182 1118 221 1226T330 1403Q381 1452 447 1484T604 1516Q648 1516 687 1505T759 1474T814 1430T848 1378ZM721 922V985Q721 1087 745 1174Q726 1176 709 1186T680 1210T660 1242T653 1276Q653 1297 657 1312T668 1338T680 1358T688 1378Q688 1419 660 1443T584 1468Q535 1468 497 1446T432 1375T389 1245T369 1047Q368 1035 368 1019T367 986T367 952T367 922H721Z"/></font>
</defs>
</svg>
